<svg width="54" height="70" viewBox="0 0 54 70" fill="none" xmlns="http://www.w3.org/2000/svg">
<path d="M9.22667 26.7512C8.94849 26.7773 8.69205 26.9128 8.51379 27.1279L8.70629 27.2874L8.51379 27.1279C8.33552 27.3431 8.25002 27.6202 8.2761 27.8984C8.30218 28.1766 8.4377 28.4331 8.65285 28.6113C8.8648 28.7869 9.13692 28.8725 9.41092 28.8501H44.5984C44.7369 28.8518 44.8743 28.8261 45.0029 28.7745C45.132 28.7226 45.2495 28.6455 45.3486 28.5478C45.4477 28.4502 45.5263 28.3337 45.58 28.2054C45.6338 28.077 45.6614 27.9392 45.6614 27.8001C45.6614 27.6609 45.6338 27.5232 45.58 27.3948C45.5263 27.2665 45.4477 27.15 45.3486 27.0523C45.2495 26.9547 45.132 26.8776 45.0029 26.8257C44.8743 26.7741 44.7369 26.7484 44.5983 26.7501H9.41095C9.34962 26.7451 9.28796 26.7454 9.22667 26.7512ZM9.22667 26.7512L9.25001 27.0001L9.22658 26.7512C9.22661 26.7512 9.22664 26.7512 9.22667 26.7512ZM1.22657 5.9512L1.21478 5.95231L1.20315 5.95453C0.96001 6.00092 0.741072 6.13172 0.584982 6.32383C0.429387 6.51533 0.346213 6.75549 0.350008 7.00215V68.6001C0.350036 68.8786 0.460667 69.1456 0.65757 69.3425C0.854474 69.5394 1.12152 69.6501 1.39998 69.6501H52.6C52.8785 69.6501 53.1455 69.5394 53.3424 69.3425C53.5394 69.1456 53.65 68.8786 53.65 68.6001V7.0001C53.65 6.72161 53.5394 6.45456 53.3424 6.25766C53.1455 6.06076 52.8785 5.95013 52.6 5.9501H41.65V4.6001C41.65 2.25987 39.7402 0.350098 37.4 0.350098H16.6C14.2598 0.350098 12.35 2.25987 12.35 4.6001V5.9501H1.41095C1.34959 5.94506 1.28789 5.94543 1.22657 5.9512ZM16.6 2.4501H37.4C38.6054 2.4501 39.55 3.39473 39.55 4.6001V9.4001C39.55 10.6055 38.6054 11.5501 37.4 11.5501H16.6C15.3946 11.5501 14.45 10.6055 14.45 9.4001V4.6001C14.45 3.39473 15.3946 2.4501 16.6 2.4501ZM2.45001 8.0501H12.35V9.4001C12.35 11.7403 14.2598 13.6501 16.6 13.6501H37.4C39.7402 13.6501 41.65 11.7403 41.65 9.4001V8.0501H51.55V67.5501H2.45001V8.0501ZM9.22658 41.1512C8.94843 41.1773 8.69203 41.3128 8.51378 41.5279C8.33552 41.7431 8.25002 42.0202 8.2761 42.2984C8.30218 42.5766 8.4377 42.8331 8.65285 43.0113C8.8648 43.1869 9.13691 43.2725 9.41091 43.2501H44.5985C44.7369 43.2518 44.8744 43.2261 45.0029 43.1745C45.132 43.1226 45.2495 43.0455 45.3486 42.9478C45.4477 42.8502 45.5263 42.7337 45.58 42.6054C45.6338 42.477 45.6614 42.3392 45.6614 42.2001C45.6614 42.0609 45.6338 41.9232 45.58 41.7948C45.5263 41.6665 45.4477 41.55 45.3486 41.4523C45.2495 41.3547 45.132 41.2776 45.0029 41.2257C44.8744 41.1741 44.737 41.1484 44.5985 41.1501H9.41096C9.3496 41.1451 9.2879 41.1454 9.22658 41.1512ZM9.22658 55.5512C8.94843 55.5773 8.69203 55.7128 8.51379 55.9279C8.33552 56.1431 8.25002 56.4202 8.2761 56.6984C8.30218 56.9766 8.4377 57.2331 8.65285 57.4113C8.8648 57.5869 9.13692 57.6725 9.41092 57.6501H44.5985C44.7369 57.6518 44.8744 57.6261 45.0029 57.5745C45.132 57.5226 45.2495 57.4455 45.3486 57.3479C45.4477 57.2502 45.5263 57.1337 45.58 57.0054C45.6338 56.877 45.6614 56.7393 45.6614 56.6001C45.6614 56.4609 45.6338 56.3232 45.58 56.1948C45.5263 56.0665 45.4477 55.95 45.3486 55.8523C45.2495 55.7547 45.132 55.6776 45.0029 55.6257C44.8744 55.5741 44.7369 55.5484 44.5985 55.5501H9.41096C9.3496 55.5451 9.2879 55.5454 9.22658 55.5512Z" fill="#3460C6" stroke="#D0EFFF" stroke-width="0.5"/>
</svg>
