<svg width="64" height="64" viewBox="0 0 64 64" fill="none" xmlns="http://www.w3.org/2000/svg">
<mask id="path-1-outside-1" maskUnits="userSpaceOnUse" x="-0.200439" y="-0.20459" width="64" height="64" fill="black">
<rect fill="white" x="-0.200439" y="-0.20459" width="64" height="64"/>
<path d="M31.875 0.803758C31.7368 0.82819 31.6075 0.888542 31.5 0.978758L25 5.87876L16.9 4.87876C16.7268 4.861 16.5526 4.90019 16.4037 4.99043C16.2548 5.08066 16.1394 5.21701 16.075 5.37876L12.9 12.9038L5.37504 16.0788C5.21329 16.1431 5.07695 16.2585 4.98672 16.4074C4.89648 16.5563 4.85727 16.7306 4.87504 16.9038L5.87504 25.0038L0.975038 31.5038C0.861449 31.6457 0.799561 31.8221 0.799561 32.0038C0.799561 32.1856 0.861449 32.3619 0.975038 32.5038L5.87504 39.0037L4.87504 47.1038C4.85726 47.277 4.89647 47.4513 4.9867 47.6002C5.07694 47.749 5.21328 47.8644 5.37504 47.9288L12.9 51.1038L16.075 58.6289C16.1394 58.7906 16.2548 58.9269 16.4037 59.0171C16.5526 59.1074 16.7268 59.1466 16.9 59.1289L25 58.1289L31.5 63.0289C31.6419 63.1425 31.8182 63.2043 32 63.2043C32.1818 63.2043 32.3581 63.1425 32.5 63.0289L39 58.1289L47.1 59.1289C47.2732 59.1466 47.4474 59.1074 47.5963 59.0171C47.7452 58.9269 47.8606 58.7906 47.925 58.6289L51.1 51.1038L58.625 47.9288C58.7867 47.8644 58.9231 47.749 59.0133 47.6002C59.1035 47.4513 59.1427 47.277 59.125 47.1038L58.125 39.0037L63.025 32.5038C63.1385 32.3619 63.2004 32.1856 63.2004 32.0038C63.2004 31.8221 63.1385 31.6457 63.025 31.5038L58.125 25.0038L59.125 16.9038C59.1427 16.7306 59.1035 16.5563 59.0133 16.4074C58.923 16.2585 58.7867 16.1431 58.625 16.0788L51.1 12.9038L47.925 5.37876C47.8606 5.21701 47.7452 5.08066 47.5963 4.99043C47.4474 4.90019 47.2732 4.861 47.1 4.87876L39 5.87876L32.5 0.978758C32.4138 0.90755 32.3137 0.855189 32.2061 0.825048C32.0984 0.794906 31.9857 0.787652 31.875 0.803758ZM32 2.60376L38.275 7.37876C38.3601 7.44232 38.457 7.48831 38.56 7.51406C38.663 7.53981 38.7701 7.54482 38.875 7.52876L46.7 6.55376L49.75 13.8038C49.7902 13.9056 49.8509 13.998 49.9283 14.0754C50.0057 14.1528 50.0982 14.2135 50.2 14.2538L57.45 17.3038L56.475 25.1288C56.459 25.2337 56.4639 25.3408 56.4897 25.4438C56.5154 25.5469 56.5614 25.6437 56.625 25.7288L61.4 32.0038L56.625 38.2788C56.5614 38.3638 56.5154 38.4607 56.4897 38.5637C56.4639 38.6667 56.459 38.7738 56.475 38.8788L57.45 46.7038L50.2 49.7538C50.0982 49.794 50.0057 49.8547 49.9283 49.9321C49.8509 50.0095 49.7902 50.102 49.75 50.2038L46.7 57.4538L38.875 56.4789C38.7701 56.4628 38.663 56.4678 38.56 56.4935C38.457 56.5193 38.3601 56.5653 38.275 56.6289L32 61.4038L25.725 56.6289C25.6399 56.5653 25.543 56.5193 25.44 56.4935C25.337 56.4678 25.2299 56.4628 25.125 56.4789L17.3 57.4538L14.25 50.2038C14.2098 50.102 14.1491 50.0095 14.0717 49.9321C13.9943 49.8547 13.9018 49.794 13.8 49.7538L6.55 46.7038L7.52496 38.8788C7.54103 38.7738 7.53606 38.6667 7.51032 38.5637C7.48458 38.4607 7.43859 38.3638 7.37504 38.2788L2.6 32.0038L7.37504 25.7288C7.43859 25.6437 7.48458 25.5469 7.51032 25.4438C7.53606 25.3408 7.54103 25.2337 7.52496 25.1288L6.55 17.3038L13.8 14.2538C13.9018 14.2135 13.9943 14.1528 14.0717 14.0754C14.1491 13.998 14.2098 13.9056 14.25 13.8038L17.3 6.55376L25.125 7.52876C25.2299 7.54482 25.337 7.53981 25.44 7.51406C25.543 7.48831 25.6399 7.44232 25.725 7.37876L32 2.60376ZM23.2 16.8038C19.6748 16.8038 16.8 19.6787 16.8 23.2038C16.8 26.7289 19.6749 29.6038 23.2 29.6038C26.7251 29.6038 29.6 26.7289 29.6 23.2038C29.6 19.6787 26.7251 16.8038 23.2 16.8038ZM44.775 18.3788C44.5661 18.387 44.3686 18.4767 44.225 18.6288L18.625 44.2288C18.4773 44.3816 18.396 44.5866 18.399 44.7991C18.402 45.0116 18.4889 45.2143 18.6408 45.3629C18.7928 45.5115 18.9973 45.594 19.2098 45.5922C19.4223 45.5905 19.6255 45.5048 19.775 45.3537L45.375 19.7538C45.4927 19.6404 45.5728 19.4938 45.6047 19.3336C45.6365 19.1734 45.6186 19.0073 45.5532 18.8576C45.4879 18.7079 45.3783 18.5817 45.2392 18.4961C45.1001 18.4105 44.9381 18.3696 44.775 18.3788ZM23.2 18.4037C25.8603 18.4037 28 20.5434 28 23.2037C28 25.8641 25.8603 28.0037 23.2 28.0037C20.5395 28.0037 18.4 25.8642 18.4 23.2037C18.4 20.5434 20.5396 18.4037 23.2 18.4037ZM40.8 34.4037C37.2749 34.4037 34.4 37.2786 34.4 40.8037C34.4 44.3288 37.2748 47.2037 40.8 47.2037C44.3251 47.2037 47.2 44.3288 47.2 40.8037C47.2 37.2786 44.3251 34.4037 40.8 34.4037ZM40.8 36.0037C43.4603 36.0037 45.6 38.1433 45.6 40.8037C45.6 43.464 43.4603 45.6037 40.8 45.6037C38.1396 45.6037 36 43.4641 36 40.8037C36 38.1433 38.1395 36.0037 40.8 36.0037Z"/>
</mask>
<path d="M31.875 0.803758C31.7368 0.82819 31.6075 0.888542 31.5 0.978758L25 5.87876L16.9 4.87876C16.7268 4.861 16.5526 4.90019 16.4037 4.99043C16.2548 5.08066 16.1394 5.21701 16.075 5.37876L12.9 12.9038L5.37504 16.0788C5.21329 16.1431 5.07695 16.2585 4.98672 16.4074C4.89648 16.5563 4.85727 16.7306 4.87504 16.9038L5.87504 25.0038L0.975038 31.5038C0.861449 31.6457 0.799561 31.8221 0.799561 32.0038C0.799561 32.1856 0.861449 32.3619 0.975038 32.5038L5.87504 39.0037L4.87504 47.1038C4.85726 47.277 4.89647 47.4513 4.9867 47.6002C5.07694 47.749 5.21328 47.8644 5.37504 47.9288L12.9 51.1038L16.075 58.6289C16.1394 58.7906 16.2548 58.9269 16.4037 59.0171C16.5526 59.1074 16.7268 59.1466 16.9 59.1289L25 58.1289L31.5 63.0289C31.6419 63.1425 31.8182 63.2043 32 63.2043C32.1818 63.2043 32.3581 63.1425 32.5 63.0289L39 58.1289L47.1 59.1289C47.2732 59.1466 47.4474 59.1074 47.5963 59.0171C47.7452 58.9269 47.8606 58.7906 47.925 58.6289L51.1 51.1038L58.625 47.9288C58.7867 47.8644 58.9231 47.749 59.0133 47.6002C59.1035 47.4513 59.1427 47.277 59.125 47.1038L58.125 39.0037L63.025 32.5038C63.1385 32.3619 63.2004 32.1856 63.2004 32.0038C63.2004 31.8221 63.1385 31.6457 63.025 31.5038L58.125 25.0038L59.125 16.9038C59.1427 16.7306 59.1035 16.5563 59.0133 16.4074C58.923 16.2585 58.7867 16.1431 58.625 16.0788L51.1 12.9038L47.925 5.37876C47.8606 5.21701 47.7452 5.08066 47.5963 4.99043C47.4474 4.90019 47.2732 4.861 47.1 4.87876L39 5.87876L32.5 0.978758C32.4138 0.90755 32.3137 0.855189 32.2061 0.825048C32.0984 0.794906 31.9857 0.787652 31.875 0.803758ZM32 2.60376L38.275 7.37876C38.3601 7.44232 38.457 7.48831 38.56 7.51406C38.663 7.53981 38.7701 7.54482 38.875 7.52876L46.7 6.55376L49.75 13.8038C49.7902 13.9056 49.8509 13.998 49.9283 14.0754C50.0057 14.1528 50.0982 14.2135 50.2 14.2538L57.45 17.3038L56.475 25.1288C56.459 25.2337 56.4639 25.3408 56.4897 25.4438C56.5154 25.5469 56.5614 25.6437 56.625 25.7288L61.4 32.0038L56.625 38.2788C56.5614 38.3638 56.5154 38.4607 56.4897 38.5637C56.4639 38.6667 56.459 38.7738 56.475 38.8788L57.45 46.7038L50.2 49.7538C50.0982 49.794 50.0057 49.8547 49.9283 49.9321C49.8509 50.0095 49.7902 50.102 49.75 50.2038L46.7 57.4538L38.875 56.4789C38.7701 56.4628 38.663 56.4678 38.56 56.4935C38.457 56.5193 38.3601 56.5653 38.275 56.6289L32 61.4038L25.725 56.6289C25.6399 56.5653 25.543 56.5193 25.44 56.4935C25.337 56.4678 25.2299 56.4628 25.125 56.4789L17.3 57.4538L14.25 50.2038C14.2098 50.102 14.1491 50.0095 14.0717 49.9321C13.9943 49.8547 13.9018 49.794 13.8 49.7538L6.55 46.7038L7.52496 38.8788C7.54103 38.7738 7.53606 38.6667 7.51032 38.5637C7.48458 38.4607 7.43859 38.3638 7.37504 38.2788L2.6 32.0038L7.37504 25.7288C7.43859 25.6437 7.48458 25.5469 7.51032 25.4438C7.53606 25.3408 7.54103 25.2337 7.52496 25.1288L6.55 17.3038L13.8 14.2538C13.9018 14.2135 13.9943 14.1528 14.0717 14.0754C14.1491 13.998 14.2098 13.9056 14.25 13.8038L17.3 6.55376L25.125 7.52876C25.2299 7.54482 25.337 7.53981 25.44 7.51406C25.543 7.48831 25.6399 7.44232 25.725 7.37876L32 2.60376ZM23.2 16.8038C19.6748 16.8038 16.8 19.6787 16.8 23.2038C16.8 26.7289 19.6749 29.6038 23.2 29.6038C26.7251 29.6038 29.6 26.7289 29.6 23.2038C29.6 19.6787 26.7251 16.8038 23.2 16.8038ZM44.775 18.3788C44.5661 18.387 44.3686 18.4767 44.225 18.6288L18.625 44.2288C18.4773 44.3816 18.396 44.5866 18.399 44.7991C18.402 45.0116 18.4889 45.2143 18.6408 45.3629C18.7928 45.5115 18.9973 45.594 19.2098 45.5922C19.4223 45.5905 19.6255 45.5048 19.775 45.3537L45.375 19.7538C45.4927 19.6404 45.5728 19.4938 45.6047 19.3336C45.6365 19.1734 45.6186 19.0073 45.5532 18.8576C45.4879 18.7079 45.3783 18.5817 45.2392 18.4961C45.1001 18.4105 44.9381 18.3696 44.775 18.3788ZM23.2 18.4037C25.8603 18.4037 28 20.5434 28 23.2037C28 25.8641 25.8603 28.0037 23.2 28.0037C20.5395 28.0037 18.4 25.8642 18.4 23.2037C18.4 20.5434 20.5396 18.4037 23.2 18.4037ZM40.8 34.4037C37.2749 34.4037 34.4 37.2786 34.4 40.8037C34.4 44.3288 37.2748 47.2037 40.8 47.2037C44.3251 47.2037 47.2 44.3288 47.2 40.8037C47.2 37.2786 44.3251 34.4037 40.8 34.4037ZM40.8 36.0037C43.4603 36.0037 45.6 38.1433 45.6 40.8037C45.6 43.464 43.4603 45.6037 40.8 45.6037C38.1396 45.6037 36 43.4641 36 40.8037C36 38.1433 38.1395 36.0037 40.8 36.0037Z" fill="#3460C6"/>
<path d="M31.875 0.803758C31.7368 0.82819 31.6075 0.888542 31.5 0.978758L25 5.87876L16.9 4.87876C16.7268 4.861 16.5526 4.90019 16.4037 4.99043C16.2548 5.08066 16.1394 5.21701 16.075 5.37876L12.9 12.9038L5.37504 16.0788C5.21329 16.1431 5.07695 16.2585 4.98672 16.4074C4.89648 16.5563 4.85727 16.7306 4.87504 16.9038L5.87504 25.0038L0.975038 31.5038C0.861449 31.6457 0.799561 31.8221 0.799561 32.0038C0.799561 32.1856 0.861449 32.3619 0.975038 32.5038L5.87504 39.0037L4.87504 47.1038C4.85726 47.277 4.89647 47.4513 4.9867 47.6002C5.07694 47.749 5.21328 47.8644 5.37504 47.9288L12.9 51.1038L16.075 58.6289C16.1394 58.7906 16.2548 58.9269 16.4037 59.0171C16.5526 59.1074 16.7268 59.1466 16.9 59.1289L25 58.1289L31.5 63.0289C31.6419 63.1425 31.8182 63.2043 32 63.2043C32.1818 63.2043 32.3581 63.1425 32.5 63.0289L39 58.1289L47.1 59.1289C47.2732 59.1466 47.4474 59.1074 47.5963 59.0171C47.7452 58.9269 47.8606 58.7906 47.925 58.6289L51.1 51.1038L58.625 47.9288C58.7867 47.8644 58.9231 47.749 59.0133 47.6002C59.1035 47.4513 59.1427 47.277 59.125 47.1038L58.125 39.0037L63.025 32.5038C63.1385 32.3619 63.2004 32.1856 63.2004 32.0038C63.2004 31.8221 63.1385 31.6457 63.025 31.5038L58.125 25.0038L59.125 16.9038C59.1427 16.7306 59.1035 16.5563 59.0133 16.4074C58.923 16.2585 58.7867 16.1431 58.625 16.0788L51.1 12.9038L47.925 5.37876C47.8606 5.21701 47.7452 5.08066 47.5963 4.99043C47.4474 4.90019 47.2732 4.861 47.1 4.87876L39 5.87876L32.5 0.978758C32.4138 0.90755 32.3137 0.855189 32.2061 0.825048C32.0984 0.794906 31.9857 0.787652 31.875 0.803758ZM32 2.60376L38.275 7.37876C38.3601 7.44232 38.457 7.48831 38.56 7.51406C38.663 7.53981 38.7701 7.54482 38.875 7.52876L46.7 6.55376L49.75 13.8038C49.7902 13.9056 49.8509 13.998 49.9283 14.0754C50.0057 14.1528 50.0982 14.2135 50.2 14.2538L57.45 17.3038L56.475 25.1288C56.459 25.2337 56.4639 25.3408 56.4897 25.4438C56.5154 25.5469 56.5614 25.6437 56.625 25.7288L61.4 32.0038L56.625 38.2788C56.5614 38.3638 56.5154 38.4607 56.4897 38.5637C56.4639 38.6667 56.459 38.7738 56.475 38.8788L57.45 46.7038L50.2 49.7538C50.0982 49.794 50.0057 49.8547 49.9283 49.9321C49.8509 50.0095 49.7902 50.102 49.75 50.2038L46.7 57.4538L38.875 56.4789C38.7701 56.4628 38.663 56.4678 38.56 56.4935C38.457 56.5193 38.3601 56.5653 38.275 56.6289L32 61.4038L25.725 56.6289C25.6399 56.5653 25.543 56.5193 25.44 56.4935C25.337 56.4678 25.2299 56.4628 25.125 56.4789L17.3 57.4538L14.25 50.2038C14.2098 50.102 14.1491 50.0095 14.0717 49.9321C13.9943 49.8547 13.9018 49.794 13.8 49.7538L6.55 46.7038L7.52496 38.8788C7.54103 38.7738 7.53606 38.6667 7.51032 38.5637C7.48458 38.4607 7.43859 38.3638 7.37504 38.2788L2.6 32.0038L7.37504 25.7288C7.43859 25.6437 7.48458 25.5469 7.51032 25.4438C7.53606 25.3408 7.54103 25.2337 7.52496 25.1288L6.55 17.3038L13.8 14.2538C13.9018 14.2135 13.9943 14.1528 14.0717 14.0754C14.1491 13.998 14.2098 13.9056 14.25 13.8038L17.3 6.55376L25.125 7.52876C25.2299 7.54482 25.337 7.53981 25.44 7.51406C25.543 7.48831 25.6399 7.44232 25.725 7.37876L32 2.60376ZM23.2 16.8038C19.6748 16.8038 16.8 19.6787 16.8 23.2038C16.8 26.7289 19.6749 29.6038 23.2 29.6038C26.7251 29.6038 29.6 26.7289 29.6 23.2038C29.6 19.6787 26.7251 16.8038 23.2 16.8038ZM44.775 18.3788C44.5661 18.387 44.3686 18.4767 44.225 18.6288L18.625 44.2288C18.4773 44.3816 18.396 44.5866 18.399 44.7991C18.402 45.0116 18.4889 45.2143 18.6408 45.3629C18.7928 45.5115 18.9973 45.594 19.2098 45.5922C19.4223 45.5905 19.6255 45.5048 19.775 45.3537L45.375 19.7538C45.4927 19.6404 45.5728 19.4938 45.6047 19.3336C45.6365 19.1734 45.6186 19.0073 45.5532 18.8576C45.4879 18.7079 45.3783 18.5817 45.2392 18.4961C45.1001 18.4105 44.9381 18.3696 44.775 18.3788ZM23.2 18.4037C25.8603 18.4037 28 20.5434 28 23.2037C28 25.8641 25.8603 28.0037 23.2 28.0037C20.5395 28.0037 18.4 25.8642 18.4 23.2037C18.4 20.5434 20.5396 18.4037 23.2 18.4037ZM40.8 34.4037C37.2749 34.4037 34.4 37.2786 34.4 40.8037C34.4 44.3288 37.2748 47.2037 40.8 47.2037C44.3251 47.2037 47.2 44.3288 47.2 40.8037C47.2 37.2786 44.3251 34.4037 40.8 34.4037ZM40.8 36.0037C43.4603 36.0037 45.6 38.1433 45.6 40.8037C45.6 43.464 43.4603 45.6037 40.8 45.6037C38.1396 45.6037 36 43.4641 36 40.8037C36 38.1433 38.1395 36.0037 40.8 36.0037Z" stroke="#D0EFFF" mask="url(#path-1-outside-1)"/>
</svg>
