<svg width="60" height="70" viewBox="0 0 60 70" fill="none" xmlns="http://www.w3.org/2000/svg">
<path d="M5.20001 0.350098C2.85978 0.350098 0.950012 2.25986 0.950012 4.6001V39.8001C0.950012 42.1403 2.85978 44.0501 5.20001 44.0501H29.75V59.0001C29.75 59.2786 29.8607 59.5456 30.0576 59.7425C30.2545 59.9394 30.5215 60.0501 30.8 60.0501H34.55V68.6001C34.55 68.8786 34.6607 69.1456 34.8576 69.3425C35.0545 69.5394 35.3215 69.6501 35.6 69.6501H46.8C47.0785 69.6501 47.3455 69.5394 47.5424 69.3425C47.7394 69.1456 47.85 68.8786 47.85 68.6001V60.0501H51.6C51.8785 60.0501 52.1455 59.9394 52.3424 59.7425C52.5394 59.5456 52.65 59.2786 52.65 59.0001V44.0501H54.8C57.1402 44.0501 59.05 42.1403 59.05 39.8001V4.6001C59.05 2.25986 57.1402 0.350098 54.8 0.350098H5.20001ZM5.20001 2.4501H54.8C56.0054 2.4501 56.95 3.39473 56.95 4.6001V39.8001C56.95 41.0055 56.0054 41.9501 54.8 41.9501H52.4897C51.6043 36.5056 46.8975 32.3501 41.2 32.3501C35.5025 32.3501 30.7957 36.5056 29.9103 41.9501H5.20001C3.99465 41.9501 3.05001 41.0055 3.05001 39.8001V4.6001C3.05001 3.39473 3.99465 2.4501 5.20001 2.4501ZM41.2 16.3501C37.5368 16.3501 34.55 19.3369 34.55 23.0001C34.55 26.6633 37.5368 29.6501 41.2 29.6501C44.8632 29.6501 47.85 26.6633 47.85 23.0001C47.85 19.3369 44.8632 16.3501 41.2 16.3501ZM41.2 18.4501C43.7224 18.4501 45.75 20.4777 45.75 23.0001C45.75 25.5225 43.7224 27.5501 41.2 27.5501C38.6776 27.5501 36.65 25.5225 36.65 23.0001C36.65 20.4777 38.6776 18.4501 41.2 18.4501ZM41.2 34.4501C46.3942 34.4501 50.55 38.6059 50.55 43.8001V57.9501H46.8C46.5215 57.9501 46.2545 58.0608 46.0576 58.2577C45.8607 58.4546 45.75 58.7216 45.75 59.0001V67.5501H36.65V59.0001C36.65 58.7216 36.5394 58.4546 36.3424 58.2577C36.1455 58.0608 35.8785 57.9501 35.6 57.9501H31.85V43.8001C31.85 38.6059 36.0058 34.4501 41.2 34.4501Z" fill="#3460C6" stroke="#D0EFFF" stroke-width="0.5"/>
</svg>
