<svg width="66" height="66" viewBox="0 0 66 66" fill="none" xmlns="http://www.w3.org/2000/svg">
<path d="M1.39473 33.9786L1.39472 33.9786C1.26636 33.9249 1.14994 33.8462 1.05225 33.7471C0.954577 33.648 0.877542 33.5306 0.825649 33.4014L1.05754 33.3082L0.825648 33.4014C0.773982 33.2728 0.748278 33.1353 0.750004 32.9968C0.750947 15.2042 15.0027 0.748535 32.6 0.748535C44.846 0.748535 55.5548 7.70905 60.8996 17.9647V7.0027C60.8913 6.73657 60.9845 6.47718 61.1603 6.27708C61.3371 6.07587 61.5841 5.9498 61.8508 5.9247C61.8509 5.92469 61.8509 5.92469 61.851 5.92468L61.8744 6.17358C61.9877 6.16282 62.1021 6.17638 62.2097 6.21333C62.3174 6.25028 62.416 6.3098 62.4988 6.38789C62.5816 6.46598 62.6469 6.56085 62.6901 6.66616C62.7334 6.77147 62.7536 6.88476 62.7496 6.99854L1.39473 33.9786ZM1.39473 33.9786C1.52306 34.0323 1.66082 34.06 1.8 34.06C1.93919 34.06 2.07695 34.0323 2.20528 33.9786L2.10879 33.748L2.20528 33.9786C2.33365 33.9249 2.45006 33.8462 2.54776 33.7471C2.64543 33.648 2.72247 33.5306 2.77436 33.4014L2.54239 33.3082C2.58192 33.2098 2.6015 33.1045 2.6 32.9985H2.85C2.85 32.998 2.85 32.9974 2.85 32.9969C2.85088 16.3286 16.1609 2.84854 32.6 2.84854C44.7804 2.84854 55.3316 10.1973 59.946 20.7981H47.1017C46.9632 20.7964 46.8257 20.8221 46.6971 20.8738C46.568 20.9257 46.4505 21.0027 46.3514 21.1004L46.527 21.2784L46.3514 21.1004C46.2524 21.1981 46.1737 21.3145 46.12 21.4429L46.3506 21.5394L46.12 21.4429C46.0663 21.5712 46.0386 21.709 46.0386 21.8481C46.0386 21.9873 46.0663 22.1251 46.12 22.2534L46.3506 22.1569L46.12 22.2534C46.1737 22.3818 46.2524 22.4982 46.3514 22.5959C46.4505 22.6936 46.568 22.7706 46.6971 22.8225C46.8257 22.8741 46.9632 22.8999 47.1017 22.8981H61.9496C62.2281 22.8981 62.4951 22.7875 62.692 22.5906C62.8889 22.3937 62.9996 22.1266 62.9996 21.8482V7.00262L1.39473 33.9786ZM64.0689 31.9257C63.808 31.9584 63.5689 32.0877 63.3988 32.2882C63.2298 32.4874 63.1411 32.7424 63.15 33.0033C63.1476 49.67 49.8128 63.1487 33.3744 63.1487C21.1918 63.1487 10.6412 55.7799 6.02833 45.1735H18.8729C19.0113 45.1752 19.1488 45.1495 19.2772 45.0978L19.184 44.8659L19.2773 45.0978C19.4064 45.046 19.5239 44.9689 19.623 44.8712C19.7221 44.7735 19.8007 44.6571 19.8544 44.5288C19.9081 44.4004 19.9358 44.2626 19.9358 44.1235C19.9358 43.9843 19.9081 43.8466 19.8544 43.7182C19.8007 43.5898 19.7221 43.4734 19.623 43.3757C19.5239 43.278 19.4064 43.201 19.2773 43.1491C19.1488 43.0975 19.0113 43.0718 18.8729 43.0735H4.03208C3.99115 43.0713 3.95012 43.0714 3.9092 43.074L3.90135 43.0745L3.2248 44.1235H2.9748V44.1244V58.9971C2.97309 59.1356 2.99881 59.273 3.05045 59.4015C3.10231 59.5306 3.17932 59.6482 3.27705 59.7473C3.37474 59.8464 3.49116 59.9251 3.61952 59.9788L3.71601 59.7481L3.61953 59.9788C3.74801 60.0325 3.88577 60.0601 4.0248 60.0601C4.16383 60.0601 4.3016 60.0325 4.43008 59.9788L4.33359 59.7481L4.43008 59.9788C4.55845 59.9251 4.67486 59.8464 4.77256 59.7473C4.87029 59.6482 4.9473 59.5306 4.99916 59.4015C5.0508 59.273 5.07652 59.1356 5.0748 58.9971V48.0327C10.4196 58.2905 21.1284 65.2487 33.3744 65.2487C50.9706 65.2487 65.2476 50.7949 65.25 33.0033C65.2551 32.8527 65.2278 32.7026 65.1698 32.5635C65.1111 32.4227 65.0225 32.2964 64.9101 32.1934C64.7977 32.0904 64.6642 32.013 64.5188 31.9668C64.3736 31.9206 64.2201 31.9066 64.0689 31.9257ZM64.0689 31.9257L64.1 32.1737M64.0689 31.9257C64.0688 31.9257 64.0687 31.9257 64.0686 31.9257L64.1 32.1737M64.1 32.1737C63.9012 32.1986 63.719 32.2972 63.5894 32.45C63.4598 32.6027 63.3922 32.7986 63.4 32.9987M64.1 32.1737L63.4 32.9987M63.4 32.9987C63.4 49.8027 49.9552 63.3987 33.3744 63.3987C21.0505 63.3987 10.3841 55.9213 5.75592 45.1735L63.4 32.9987Z" fill="#3460C6" stroke="#D0EFFF" stroke-width="0.5"/>
</svg>
