<svg viewBox="0 0 54 22" fill="none" xmlns="http://www.w3.org/2000/svg">
<path d="M36.3268 0.948762C36.2235 0.944734 36.1264 0.965533 36.0361 1.01123C35.9733 1.03781 35.9108 1.06447 35.8484 1.09105C35.7696 1.14656 35.6947 1.20676 35.6222 1.27098C35.4835 1.38904 35.3997 1.61466 35.3638 1.78471C35.3297 1.94494 35.3303 2.10115 35.3372 2.26314C35.3632 2.85559 35.3896 3.44972 35.4118 4.04334C35.4483 5.01184 35.5322 5.97799 35.6268 6.94246C35.3954 6.90431 35.1628 6.86952 34.9308 6.83254C34.5093 6.76422 34.0885 6.69421 33.666 6.62888C32.8367 6.49926 32.0068 6.37315 31.1769 6.2447C29.3883 5.96818 27.5986 5.70491 25.8138 5.40583C24.9442 5.25944 24.077 5.10147 23.2086 4.95054C22.329 4.79719 21.4461 4.65725 20.5656 4.5091C18.8805 4.22444 17.2054 3.88194 15.5241 3.57539C11.9629 2.92735 8.3771 2.39744 4.78066 1.98492C4.54287 1.95717 4.30479 1.93806 4.06584 1.91843C3.9316 1.90744 3.79796 1.89646 3.66372 1.88548C3.24608 1.85069 2.82946 1.86578 2.41555 1.93117C2.08696 1.98324 1.76327 2.08386 1.48147 2.26438C1.31143 2.37313 1.06866 2.57679 0.97932 2.76426C0.862438 3.00783 0.779465 3.21779 0.766724 3.48978C0.752296 3.79933 0.811542 4.11115 0.860756 4.41543C0.881553 4.54732 0.904178 4.67929 0.928127 4.81001C1.02128 5.32146 1.13354 5.8294 1.22984 6.34027C1.32732 6.85575 1.41644 7.37065 1.5 7.88848C1.54226 8.25705 1.58363 8.6238 1.61138 8.99414C1.64668 9.46392 1.66551 9.93195 1.68052 10.4034C1.69385 10.8292 1.68945 11.2562 1.69582 11.6826C1.70336 12.154 1.73486 12.618 1.82749 13.0815C1.88791 13.3846 2.00333 13.6861 2.18099 13.9395C2.31896 14.1362 2.45202 14.2808 2.65795 14.4104C2.8206 14.5123 2.99958 14.5863 3.18618 14.628C3.50005 14.698 3.82952 14.709 4.14976 14.7275C4.35254 14.739 4.5562 14.7483 4.75979 14.7587C5.20966 14.7796 5.66033 14.7993 6.11012 14.8178C6.97478 14.853 7.83935 14.8641 8.70401 14.8768C10.4239 14.9023 12.1443 14.9289 13.864 14.9387C14.0807 14.9404 14.2973 14.9404 14.514 14.9404C16.0319 14.9404 17.5502 14.9104 19.0668 14.8641C20.8788 14.8085 22.6868 14.6928 24.4962 14.5944C26.2469 14.4989 28.0001 14.4718 29.7513 14.3943C30.8619 14.3451 31.9715 14.2728 33.0773 14.1663C33.8983 14.0865 34.7196 14.0113 35.5411 13.9396C35.5338 14.0055 35.524 14.0715 35.5177 14.1374C35.4847 14.4683 35.4479 14.7993 35.408 15.1296C35.3594 15.4785 35.3073 15.8268 35.2434 16.1739C35.1639 16.6066 35.0788 17.0389 34.9976 17.471C34.905 17.9674 34.8301 18.4643 34.767 18.9647C34.7179 19.3501 34.6927 19.7353 34.7216 20.1236C34.7474 20.4724 34.8188 20.7988 34.9687 21.1158C35.0356 21.2558 35.1092 21.3634 35.2151 21.4849C35.3765 21.67 35.5692 21.784 35.7963 21.8678C35.9261 21.9164 36.0572 21.9355 36.1882 21.9355C36.4604 21.9355 36.7321 21.8522 36.9942 21.7707C37.2039 21.7052 37.4139 21.6387 37.623 21.5705C38.0346 21.4363 38.4428 21.2963 38.8501 21.1493C39.7266 20.8323 40.5825 20.4625 41.4382 20.0947C42.2108 19.762 42.9922 19.4438 43.7529 19.0828C44.5632 18.6975 45.3668 18.3007 46.1678 17.8944C46.8964 17.5253 47.628 17.1597 48.3387 16.7576C49.1172 16.318 49.8823 15.8603 50.6294 15.3686C51.4967 14.7993 52.3896 14.2462 53.1687 13.5566C53.6179 13.1574 54.0938 12.5743 53.9205 11.9291C53.8884 11.8117 53.8398 11.6578 53.7782 11.5595C53.705 11.4426 53.6217 11.3367 53.528 11.236C53.4339 11.1348 53.2922 11.0399 53.1832 10.9607C53.1051 10.9034 53.027 10.8467 52.948 10.7905C52.6122 10.5481 52.2694 10.3144 51.9267 10.0818C51.1856 9.57729 50.4406 9.07975 49.6932 8.58572C49.0183 8.13967 48.342 7.68899 47.6446 7.2805C47.2714 7.06183 46.9008 6.8362 46.5222 6.62793C46.1377 6.41563 45.7539 6.20326 45.3689 5.99271C44.6 5.57038 43.8311 5.14805 43.0819 4.69218C41.5239 3.74338 39.9743 2.78126 38.4139 1.83648C37.9036 1.52752 37.3868 1.20647 36.8183 1.01379C36.6644 0.960918 36.4873 0.941805 36.3268 0.948762ZM37.1876 2.92677C37.1608 3.06444 37.1983 3.21318 37.3048 3.31614C37.3308 3.34104 37.3583 3.36477 37.3852 3.38908C37.2996 3.374 37.2137 3.36133 37.1277 3.35437C37.0387 3.34624 36.953 3.36711 36.8714 3.3989C36.8766 3.18542 36.8821 2.97254 36.8861 2.75965C36.9878 2.81282 37.0878 2.8695 37.1876 2.92677ZM43.3248 16.9656C43.1066 17.0657 42.888 17.1653 42.6678 17.2601C42.557 17.3087 42.4462 17.3562 42.3354 17.4047C42.3123 17.3805 42.2892 17.3568 42.2651 17.333C42.0736 17.1432 41.8709 16.9627 41.6672 16.7851C41.6426 16.7637 41.6181 16.7418 41.5934 16.7209C41.7754 16.7864 41.9591 16.8459 42.1465 16.8957C42.3684 16.9535 42.5931 17.0021 42.8159 17.0589C42.9548 17.0947 43.115 17.0358 43.192 16.9154C43.2363 16.9316 43.2806 16.9489 43.3248 16.9656ZM37.1436 19.3487C37.1485 19.3452 37.1532 19.3417 37.1578 19.3382L37.1581 19.3382C37.1535 19.3418 37.1486 19.3452 37.1436 19.3487ZM37.1596 19.3371C37.1616 19.3354 37.1636 19.3337 37.1657 19.3325C37.164 19.3337 37.1619 19.3348 37.1599 19.3365L37.1596 19.3371ZM37.1573 16.4942C37.2267 16.5404 37.2967 16.5868 37.3661 16.6342C37.4431 16.6862 37.5168 16.7418 37.5917 16.7962C37.6374 16.8285 37.6832 16.8621 37.7289 16.8952C37.7165 16.8946 37.7037 16.8934 37.6918 16.894C37.5984 16.898 37.5331 16.9287 37.4503 16.9651C37.4064 16.9849 37.3471 17.0461 37.3048 17.0797C37.2241 17.1433 37.1845 17.2717 37.1845 17.3701C37.1845 17.4881 37.2336 17.5708 37.3048 17.6605C37.367 17.7381 37.43 17.8121 37.4984 17.8821C37.3135 17.8074 37.1296 17.7323 36.9459 17.6559C37.0184 17.2689 37.0908 16.8818 37.1573 16.4942ZM3.75548 7.91323C3.75226 7.88547 3.7497 7.85772 3.74647 7.82989C3.72626 7.6575 3.70305 7.48453 3.67822 7.31155C3.7103 7.33469 3.74215 7.35893 3.77452 7.38156C4.34845 7.7883 4.91738 8.20367 5.50002 8.59934C5.62466 8.68444 5.74997 8.76946 5.87461 8.85449C6.25615 9.16287 6.63651 9.47242 7.01805 9.77956C7.18817 9.91782 7.35514 10.0596 7.52204 10.2019C7.90841 10.5294 8.29493 10.8562 8.68109 11.1842C9.13557 11.569 9.57723 11.9699 10.0233 12.365C10.1553 12.4825 10.2845 12.6028 10.4132 12.7232C10.3953 12.722 10.3771 12.722 10.3588 12.7214C10.3496 12.7209 10.34 12.7209 10.3308 12.7209C10.0432 12.5091 9.75746 12.2938 9.47082 12.0799C9.1196 11.8201 8.76992 11.5598 8.41906 11.2994C7.82141 10.8556 7.22142 10.4171 6.61828 9.97977C6.07021 9.58176 5.51994 9.18601 4.97063 8.79026C4.56514 8.49872 4.16133 8.20425 3.75548 7.91323ZM3.45113 4.17472C3.33952 4.09138 3.22755 4.00753 3.11594 3.92361C3.09075 3.90508 3.06615 3.88545 3.04103 3.86692C3.48328 3.84034 3.92912 3.87498 4.37107 3.90683C5.16425 4.54095 5.96497 5.16628 6.76943 5.78532C6.76775 5.78415 6.76591 5.78305 6.76423 5.78129C6.77031 5.78649 6.77668 5.7911 6.78276 5.79572C6.79689 5.80612 6.81081 5.81769 6.82465 5.82809C6.82208 5.82574 6.81923 5.82398 6.81659 5.8223C7.4628 6.3216 8.11053 6.81972 8.75791 7.31726C9.52707 7.91316 10.2942 8.51308 11.0643 9.10838C12.2285 10.0271 13.3802 10.962 14.5283 11.901C14.7236 12.0613 14.9176 12.2232 15.1118 12.3852C15.091 12.3725 15.0699 12.3592 15.0487 12.3459C14.6163 12.0786 14.1835 11.8113 13.7504 11.544C13.1765 11.1888 12.6125 10.8162 12.0452 10.4494C11.5372 10.1214 11.0261 9.79911 10.5283 9.45543C9.73483 8.90699 8.9407 8.35848 8.14693 7.81005C7.8904 7.63304 7.63752 7.45018 7.38649 7.26512C7.28169 7.17717 7.17733 7.08863 7.07232 7.00017C6.83424 6.79878 6.58459 6.61021 6.34138 6.41585C5.766 5.95653 5.19816 5.48668 4.60952 5.04472C4.22322 4.75501 3.83728 4.46516 3.45113 4.17472ZM36.8593 5.03271C36.9326 5.08302 37.0051 5.13392 37.0775 5.18481C37.2514 5.30865 37.4246 5.43358 37.5999 5.55566C37.9314 5.78649 38.2571 6.02486 38.5918 6.25159C38.7726 6.37367 38.9531 6.49692 39.1336 6.62017C38.9884 6.55763 38.8434 6.49348 38.6971 6.43504C38.5287 6.36737 38.3567 6.31179 38.1886 6.2447C38.0353 6.18451 37.8854 6.11508 37.7278 6.06536C37.5991 6.02369 37.4602 6.00282 37.324 6.01095C37.3078 6.00172 37.2916 5.99249 37.2754 5.98319C37.1499 5.90974 37.0243 5.83739 36.899 5.76452C36.8935 5.76108 36.8875 5.75815 36.882 5.75471C36.8703 5.51458 36.8634 5.27335 36.8593 5.03271ZM48.3081 12.5833C48.2763 12.5723 48.2442 12.5613 48.2123 12.5497C47.9965 12.4705 47.7817 12.39 47.5667 12.3102C47.4449 12.2476 47.3226 12.1864 47.2014 12.1222C46.6185 11.7288 46.0269 11.3486 45.4394 10.9628C44.7651 10.5196 44.0781 10.095 43.3975 9.66283C43.1472 9.50376 42.8996 9.3406 42.6465 9.18725C42.2878 8.96741 41.9291 8.74984 41.5702 8.53117C41.3972 8.42586 41.2238 8.32055 41.0509 8.21531C41.1371 8.25757 41.223 8.29975 41.3092 8.34201C41.8878 8.62373 42.4588 8.9234 43.0321 9.21501C43.0919 9.24511 43.1512 9.2763 43.2109 9.3064C43.4237 9.44291 43.6364 9.5789 43.8493 9.71489C44.0819 9.86356 44.322 10.0018 44.5598 10.143C45.1351 10.4849 45.7047 10.8396 46.2923 11.1612C46.5899 11.3244 46.8879 11.4875 47.1858 11.6506C47.3365 11.7733 47.4873 11.896 47.6383 12.0186C47.8127 12.1609 47.983 12.309 48.1549 12.4542C48.2063 12.4976 48.2569 12.5404 48.3081 12.5833ZM13.2094 5.13047C13.42 5.16804 13.6303 5.20568 13.8406 5.24384C13.8918 5.28551 13.9425 5.32776 13.9948 5.36767C14.0517 5.4122 14.1091 5.45563 14.1663 5.49956C14.3717 5.65694 14.5765 5.81315 14.7821 5.97052C14.9988 6.13603 15.2175 6.29802 15.4379 6.45766C16.0153 6.87538 16.59 7.29537 17.1697 7.70964C18.4981 8.65961 19.8261 9.61244 21.1506 10.5688C21.7228 10.9819 22.287 11.4071 22.8542 11.8276C23.0599 11.9798 23.2646 12.1337 23.469 12.2887C23.4617 12.2847 23.4545 12.2806 23.4472 12.2766C22.9954 12.0325 22.5441 11.7877 22.0929 11.543C21.8785 11.4267 21.6604 11.315 21.4496 11.1924C21.0929 10.9853 20.7362 10.777 20.3801 10.5699C19.8039 10.2343 19.2248 9.90457 18.6558 9.55686C18.2209 9.29132 17.7853 9.02636 17.3505 8.76141C17.1019 8.60982 16.8478 8.46518 16.6039 8.30546C15.9731 7.8947 15.3416 7.48621 14.7127 7.0726C14.595 6.99504 14.4807 6.91236 14.3647 6.83188C14.1475 6.68088 13.9294 6.53046 13.7119 6.38004C13.4498 6.19835 13.1883 6.01556 12.9273 5.83277C12.4535 5.50008 11.9823 5.16394 11.4995 4.84575C12.07 4.93721 12.6404 5.03095 13.2094 5.13047ZM16.6723 5.7807C16.7593 5.8461 16.8461 5.9115 16.9329 5.97741C17.2211 6.19498 17.5057 6.41826 17.7976 6.62998C18.1297 6.87187 18.4617 7.11251 18.7944 7.35373C19.0279 7.52327 19.259 7.69683 19.4965 7.8605C20.0959 8.27412 20.6946 8.68957 21.2957 9.1015C21.6989 9.37861 22.1025 9.65513 22.5057 9.93166C22.7287 10.0844 22.9468 10.2435 23.1661 10.4009C23.4181 10.5825 23.6703 10.7636 23.9223 10.9453C24.027 11.02 24.1323 11.0939 24.235 11.1715C24.6172 11.4619 24.9987 11.7518 25.3805 12.0416C25.4856 12.1244 25.5906 12.2066 25.6953 12.2892C25.6244 12.2465 25.5533 12.2036 25.4821 12.1614C25.1784 11.9803 24.8703 11.8055 24.5697 11.6181C23.8538 11.1721 23.1372 10.726 22.4207 10.2794C21.8058 9.89519 21.2012 9.49366 20.5925 9.10025C20.3657 8.95335 20.1349 8.81099 19.9107 8.65939C19.5717 8.43025 19.2332 8.20176 18.8942 7.97321C18.6055 7.77819 18.3136 7.58735 18.0275 7.38889C17.6917 7.15454 17.3564 6.9191 17.0212 6.68483C16.4767 6.30476 15.9361 5.91941 15.399 5.53062C15.5144 5.55259 15.6301 5.57338 15.7452 5.59543C16.0543 5.65694 16.3633 5.71882 16.6723 5.7807ZM37.0586 3.95085C37.067 3.94331 37.0757 3.93642 37.0849 3.93064C37.0852 3.93064 37.0852 3.93064 37.0852 3.93064C37.0766 3.93752 37.0676 3.94448 37.0586 3.95085ZM38.3835 4.3321C38.5036 4.38299 38.6215 4.43858 38.7405 4.49233C38.9702 4.6757 39.1998 4.85915 39.433 5.03791C40.0694 5.52732 40.7142 6.00406 41.3691 6.46748C41.6665 6.67868 41.9616 6.89501 42.2653 7.09757C42.6969 7.38566 43.1291 7.67318 43.5609 7.96076C43.8224 8.13549 44.092 8.2969 44.3587 8.46291C44.7449 8.70246 45.1314 8.94368 45.5175 9.18374C45.5343 9.19421 45.5508 9.20461 45.5675 9.21501C45.7365 9.34573 45.9054 9.47594 46.0746 9.60673C46.0463 9.58535 46.0179 9.5633 45.9896 9.54133C46.2485 9.74961 46.5085 9.95671 46.768 10.1644C46.75 10.1522 46.7321 10.1407 46.7142 10.1285C46.4643 9.96418 46.2126 9.8005 45.9623 9.63617C45.6228 9.41288 45.2837 9.18953 44.9441 8.96624C44.6667 8.78338 44.3907 8.60059 44.1127 8.4189C44.0945 8.40674 44.0757 8.39576 44.0575 8.3836C43.846 8.2326 43.6349 8.08159 43.4234 7.93059C43.1384 7.72693 42.8422 7.53945 42.5518 7.34392C42.1483 7.07201 41.7456 6.80127 41.3424 6.52995C41.0815 6.35463 40.8087 6.19608 40.542 6.03065C40.1298 5.77499 39.7178 5.51927 39.3057 5.26354C39.2261 5.21381 39.1431 5.17097 39.0612 5.12586C38.8202 4.99221 38.579 4.85864 38.3383 4.72492C38.2371 4.66875 38.1359 4.61324 38.0346 4.55655C37.9197 4.47212 37.8046 4.38761 37.6904 4.30192C37.555 4.19318 37.4243 4.08091 37.3013 3.95883C37.6739 4.03939 38.032 4.18512 38.3835 4.3321ZM48.1183 11.3915C48.0575 11.359 47.9968 11.3267 47.936 11.2937C47.9499 11.2405 47.9511 11.1844 47.939 11.1323C48.0512 11.226 48.1646 11.3198 48.276 11.4152C48.337 11.4679 48.398 11.5199 48.4593 11.5732C48.3451 11.5129 48.2314 11.4528 48.1183 11.3915ZM25.5471 11.4071C25.4736 11.3515 25.4001 11.296 25.3266 11.2405C25.3321 11.2434 25.3373 11.2468 25.3428 11.2497C25.8771 11.5569 26.4192 11.8542 26.9668 12.1366C27.1919 12.2529 27.4193 12.3622 27.6469 12.4716C27.8011 12.5462 27.955 12.622 28.1095 12.6966C27.7951 12.692 27.4806 12.6879 27.1659 12.6839C26.6289 12.2546 26.0947 11.8224 25.5471 11.4071ZM31.8532 12.6873C31.837 12.6769 31.8208 12.6665 31.8043 12.6561C31.8908 12.6607 31.9779 12.6596 32.0632 12.6637C32.2 12.67 32.3348 12.5844 32.4022 12.4687C32.4685 12.3565 32.4823 12.1841 32.4022 12.073C32.2995 11.9283 32.2043 11.7785 32.0788 11.6518C31.9416 11.5141 31.7771 11.403 31.6218 11.285C31.5726 11.2468 31.5234 11.2074 31.4739 11.1693C31.7893 11.3451 32.1048 11.521 32.4236 11.6911C32.6032 11.7872 32.7846 11.8774 32.9668 11.9677C33.1306 12.0498 33.2813 12.1557 33.4406 12.2454C33.5257 12.2939 33.6171 12.3356 33.7085 12.3703C33.8107 12.4096 33.9084 12.4247 34.0169 12.4386C34.0414 12.4398 34.066 12.4398 34.0904 12.4363C34.1589 12.4317 34.263 12.4183 34.3246 12.3773C34.4447 12.4536 34.5639 12.5312 34.6839 12.6076C34.7886 12.6747 34.9347 12.6295 34.9957 12.526C35.06 12.4155 35.0177 12.2812 34.9139 12.2142C34.8097 12.1476 34.7062 12.0799 34.6023 12.0129C34.6105 11.9851 34.6142 11.9562 34.6162 11.9272C34.6857 11.9648 34.7551 12.0025 34.8242 12.0395C35.178 12.2322 35.533 12.4224 35.8873 12.6134C34.5668 12.6829 33.2463 12.7256 31.9235 12.7303C31.9003 12.7157 31.8763 12.7018 31.8532 12.6873ZM33.0595 8.68678C33.1194 8.73944 33.1786 8.79209 33.2409 8.8424C33.3317 8.91534 33.4275 8.98008 33.5249 9.04379C33.6808 9.14331 33.8428 9.23354 33.9996 9.3313C34.0277 9.34866 34.0558 9.3666 34.0838 9.38396C34.0826 9.38747 34.08 9.39033 34.0789 9.39443C34.0725 9.41698 34.069 9.43954 34.067 9.46151C33.5851 9.17803 33.1031 8.89454 32.621 8.61106C32.7673 8.63581 32.9134 8.66071 33.0595 8.68678ZM40.0159 12.4224C39.75 12.247 39.4845 12.0718 39.2187 11.8959C38.9244 11.7004 38.6201 11.5187 38.3208 11.3301C38.2447 11.2827 38.1689 11.234 38.0932 11.1866C37.7683 10.9743 37.4434 10.762 37.1186 10.5491C36.9097 10.4126 36.7032 10.2726 36.4909 10.1429C36.4646 10.1267 36.4383 10.1111 36.4119 10.0949C36.5432 10.1637 36.6746 10.2332 36.8059 10.3026C36.9879 10.3981 37.1701 10.4941 37.3523 10.5895C37.407 10.6184 37.4626 10.6462 37.5161 10.6786C37.8626 10.884 38.2095 11.0894 38.556 11.2953C38.7475 11.4087 38.9399 11.5221 39.132 11.6367C39.2112 11.6841 39.2934 11.7281 39.3709 11.7784C39.9772 12.1695 40.5839 12.5589 41.1907 12.9488C41.4479 13.1154 41.7039 13.2832 41.9599 13.451C41.808 13.3769 41.6562 13.3034 41.5046 13.2288C41.3762 13.1652 41.2518 13.0911 41.126 13.0235C40.8706 12.8846 40.6148 12.7463 40.3597 12.6081C40.2449 12.5462 40.1301 12.4849 40.0159 12.4224ZM37.4092 12.4716C37.2452 12.3078 37.0196 12.2164 36.7899 12.2014C36.5047 12.04 36.2192 11.8797 35.9331 11.7201C35.9015 11.6755 35.8614 11.6374 35.8134 11.6055C35.2539 11.2388 34.6725 10.9043 34.1061 10.548C33.9867 10.4681 33.8674 10.3872 33.7474 10.3084C33.5093 10.1505 33.2736 9.98907 33.0373 9.82826C32.772 9.64832 32.5047 9.47132 32.2426 9.28729C32.0248 9.13511 31.8064 8.98359 31.5883 8.83083C31.7055 8.89447 31.8229 8.95694 31.94 9.02058C32.1266 9.12127 32.3074 9.23236 32.4902 9.33987C32.903 9.58344 33.3164 9.82701 33.7301 10.07C33.9062 10.1741 34.0858 10.2737 34.2579 10.3847C34.5976 10.6022 34.9374 10.8203 35.277 11.0378C35.7824 11.3624 36.2884 11.6864 36.7899 12.0173C37.1946 12.2834 37.5993 12.549 38.0031 12.8145C38.0902 12.8724 38.1775 12.9291 38.2646 12.9869C38.0114 12.8527 37.7586 12.7196 37.5058 12.5854C37.4772 12.5462 37.4454 12.5075 37.4092 12.4716ZM37.3149 8.28064C37.6374 8.4947 37.9589 8.71227 38.2843 8.9234C38.9875 9.3781 39.6901 9.83053 40.3986 10.2778C41.0651 10.6983 41.7333 11.1172 42.4032 11.5326C42.5681 11.6356 42.7333 11.7386 42.8984 11.8404C42.4295 11.5639 41.9609 11.2867 41.4926 11.009C41.2826 10.8846 41.0749 10.7527 40.8605 10.6358C40.536 10.4582 40.212 10.2805 39.888 10.1035C39.4923 9.88714 39.0972 9.67022 38.7014 9.45441C38.5912 9.39428 38.4773 9.33987 38.365 9.28436C38.1058 9.15474 37.8458 9.02805 37.5822 8.90831C37.4579 8.85163 37.3329 8.79722 37.207 8.74456C37.0884 8.67455 36.9704 8.60454 36.8518 8.53453C36.8706 8.49638 36.885 8.45581 36.899 8.41539C36.971 8.32919 37.0289 8.21524 37.0473 8.10063C37.1365 8.16083 37.2256 8.22103 37.3149 8.28064ZM23.7647 7.09288C24.1372 7.16172 24.5098 7.23056 24.8824 7.29888C24.8824 7.29888 24.8827 7.29889 24.883 7.30006C24.9226 7.36597 24.975 7.41869 25.0409 7.45802C25.7335 7.95842 26.4306 8.45134 27.1246 8.95013C27.4674 9.19655 27.8101 9.44247 28.1529 9.68831C28.48 9.92441 28.802 10.1686 29.1266 10.408C29.2935 10.5313 29.4595 10.6556 29.6255 10.7801C29.5466 10.7378 29.4679 10.6944 29.3892 10.651C28.7522 10.2975 28.1118 9.94872 27.4792 9.58886C26.8551 9.23361 26.2301 8.8807 25.6125 8.51505C24.8922 8.08862 24.1757 7.65648 23.4624 7.21796C23.3218 7.13118 23.1314 7.16011 23.0169 7.27523C22.8789 7.41239 22.8693 7.65999 23.0169 7.7954C23.1615 7.92963 23.316 8.0534 23.4754 8.17086C23.3415 8.0928 23.2081 8.01524 23.0762 7.93483C22.495 7.58251 21.9101 7.23539 21.3354 6.87318C21.1708 6.76963 21.0065 6.66608 20.8419 6.56253C21.8163 6.73705 22.791 6.91178 23.7647 7.09288ZM19.7588 6.76539C19.899 6.85561 20.0396 6.94473 20.1808 7.03386C20.571 7.28204 20.9605 7.52971 21.3506 7.77782C21.5514 7.9051 21.7565 8.02659 21.9607 8.14984C21.9677 8.15387 21.9749 8.15849 21.9821 8.16317C22.2656 8.33673 22.548 8.51608 22.8351 8.68503C22.8968 8.72091 22.9588 8.75672 23.0203 8.79319C23.1224 8.85507 23.2245 8.91761 23.327 8.98008C24.5557 9.7258 25.7866 10.4693 27.0128 11.2191C27.3782 11.4418 27.7389 11.6732 28.1019 11.9C28.2381 11.9856 28.373 12.0736 28.5081 12.1609C28.3669 12.0944 28.2269 12.0249 28.0874 11.9561C27.8433 11.8357 27.5977 11.7218 27.3555 11.5986C26.8811 11.3573 26.4166 11.0987 25.9509 10.8419C25.6503 10.6764 25.3547 10.5011 25.0573 10.3305C24.4585 9.98688 23.8554 9.65008 23.267 9.28971C22.8276 9.02072 22.3891 8.75167 21.9497 8.4832C21.7229 8.34376 21.4904 8.21187 21.2688 8.06497C20.9118 7.82835 20.5545 7.59284 20.1979 7.35681C19.93 7.17922 19.6566 7.00793 19.3931 6.82397C19.0541 6.58743 18.7142 6.35074 18.3755 6.11354C18.5673 6.14943 18.7594 6.18297 18.9514 6.21827C19.197 6.43218 19.4845 6.59124 19.7588 6.76539ZM22.4779 12.6128C22.552 12.6527 22.6263 12.6932 22.7004 12.7337C22.5881 12.7366 22.4756 12.7395 22.3631 12.7429C22.3209 12.6908 22.2775 12.6399 22.2291 12.5925C22.099 12.4652 21.9477 12.3587 21.8031 12.2494C21.7996 12.2465 21.7961 12.2436 21.7927 12.2407C22.0209 12.3645 22.2494 12.4889 22.4779 12.6128ZM20.092 12.6706C20.169 12.714 20.2473 12.7545 20.3249 12.7972C19.9694 12.8042 19.6139 12.8112 19.2581 12.8158C19.1771 12.7382 19.0955 12.6613 19.0139 12.5838C18.8835 12.4605 18.7478 12.3414 18.6136 12.2211C18.3301 11.9677 18.0419 11.7189 17.7553 11.4678C17.4735 11.2214 17.1826 10.9853 16.8956 10.7446C16.8302 10.6891 16.7645 10.6347 16.6989 10.5804C17.4006 11.0223 18.1033 11.4655 18.8054 11.9075C19.2268 12.173 19.6584 12.4247 20.092 12.6706ZM17.3645 12.8297C17.088 12.8309 16.8114 12.8309 16.5349 12.8297C16.2904 12.633 16.0546 12.4247 15.8143 12.2234C15.5224 11.9787 15.232 11.7328 14.9389 11.4904C14.6581 11.2584 14.3775 11.0258 14.096 10.7944C14.4114 10.9946 14.7284 11.1924 15.0442 11.3921C15.4324 11.6374 15.818 11.8844 16.2088 12.125C16.5933 12.3611 16.976 12.6006 17.3645 12.8297ZM48.1944 13.8769C47.477 13.5726 46.7709 13.2393 46.0949 12.8506C46.0507 12.8251 46.0064 12.8002 45.9621 12.7748C45.8924 12.7233 45.823 12.6724 45.7533 12.6208C45.5114 12.4426 45.2707 12.2627 45.028 12.0856C44.7015 11.8398 44.3728 11.5962 44.039 11.3601C43.7278 11.1397 43.416 10.9199 43.1044 10.6994C43.5296 10.9395 43.9545 11.179 44.3795 11.4192C44.842 11.6795 45.3115 11.9283 45.7796 12.1781C45.8834 12.2337 45.9875 12.2892 46.0914 12.3447C46.1111 12.4113 46.1513 12.4709 46.2164 12.5085C46.2702 12.5403 46.3373 12.5518 46.4021 12.5438C46.4738 12.5791 46.545 12.615 46.6185 12.6468C46.6602 12.6647 46.7018 12.6826 46.7435 12.7012C47.0426 12.8979 47.3356 13.1056 47.6307 13.3098C47.9628 13.5383 48.2879 13.7732 48.6136 14.0115C48.6388 14.0301 48.664 14.048 48.6889 14.0665C48.5213 14.0116 48.357 13.9451 48.1944 13.8769ZM36.9594 6.93206C36.9695 6.94481 36.9793 6.95755 36.9895 6.97022C36.9803 6.96502 36.9707 6.95923 36.9611 6.95403C36.9606 6.9459 36.96 6.93895 36.9594 6.93206ZM10.9372 4.75677C10.9198 4.76893 10.9036 4.78225 10.8885 4.79727C10.7468 4.93846 10.7436 5.18027 10.8885 5.32146C10.9698 5.40012 11.0493 5.48001 11.1356 5.55288C11.2296 5.63336 11.3268 5.70967 11.4243 5.78546C11.6441 5.95617 11.8698 6.11933 12.096 6.28183C12.2215 6.37206 12.3488 6.46118 12.4761 6.54854C12.8908 6.83496 13.3059 7.12071 13.7208 7.40654C14.3233 7.82191 14.9394 8.21766 15.5506 8.61919C16.1463 9.01142 16.7344 9.41354 17.3236 9.81449C17.5648 9.97765 17.8102 10.1373 18.0471 10.3073C18.415 10.5712 18.7824 10.835 19.1498 11.0988C19.6216 11.4385 20.0864 11.7873 20.5501 12.1368C20.5825 12.1622 20.615 12.1871 20.6473 12.212C20.5745 12.1732 20.5019 12.1333 20.4298 12.0928C20.2054 11.9679 19.984 11.8377 19.763 11.7064C19.5947 11.608 19.4246 11.5108 19.2594 11.4067C18.9615 11.2192 18.6627 11.0318 18.3647 10.8444C17.9374 10.5759 17.5102 10.3087 17.0827 10.0402C16.9253 9.94067 16.7702 9.84232 16.6163 9.73818C15.89 9.24584 15.1624 8.7535 14.4361 8.26057C14.2304 8.12231 14.0326 7.97013 13.8316 7.8255C13.4139 7.52297 12.9967 7.22038 12.5787 6.91778C12.0045 6.50292 11.4402 6.07481 10.8729 5.65138C10.371 5.27591 9.87038 4.89869 9.36962 4.52206C9.89264 4.59705 10.4151 4.6757 10.9372 4.75677ZM10.6797 6.65839C10.6792 6.65781 10.6783 6.65722 10.6775 6.65664C10.6766 6.65546 10.6754 6.65488 10.6745 6.65429C10.6763 6.65546 10.678 6.65664 10.6797 6.65839ZM5.67475 4.03814C6.36409 4.12324 7.05342 4.21053 7.74276 4.29848C7.83796 4.39105 7.93741 4.47841 8.03957 4.56234C8.25883 4.74286 8.48592 4.9129 8.70745 5.08939C8.90855 5.24962 9.11015 5.40934 9.31147 5.56958C9.765 5.9312 10.2155 6.29794 10.6739 6.65437C10.6702 6.65092 10.6663 6.64858 10.6623 6.64514C10.6701 6.65151 10.678 6.6573 10.6857 6.66367L10.686 6.66367C10.6953 6.67062 10.7046 6.67751 10.7138 6.68454C10.7135 6.68454 10.7132 6.68454 10.7129 6.68454C10.7141 6.68512 10.715 6.68571 10.7161 6.68681C10.7231 6.69201 10.7303 6.69728 10.7372 6.70299C10.7337 6.70006 10.7303 6.69779 10.7268 6.69486C10.7574 6.71859 10.7881 6.74232 10.8185 6.76546C10.8089 6.7585 10.7994 6.75162 10.7895 6.74349C11.2087 7.06747 11.6272 7.39028 12.0455 7.71367C12.132 7.78024 12.2179 7.84622 12.3038 7.9133C12.3316 7.93762 12.3623 7.95841 12.3929 7.98163C12.4556 8.03018 12.5188 8.07881 12.5821 8.12802L12.5818 8.12743L12.5824 8.12861C12.6015 8.14311 12.6203 8.15753 12.6397 8.17255C12.6211 8.15812 12.6023 8.14362 12.5832 8.12861C12.6037 8.14479 12.6244 8.16046 12.6449 8.17606C12.6431 8.17489 12.6413 8.17372 12.6397 8.17255C12.6561 8.18529 12.6723 8.19745 12.6892 8.2107C12.6882 8.20953 12.6871 8.20902 12.6862 8.20843C12.6958 8.21539 12.7048 8.22227 12.7144 8.22981C12.7152 8.2304 12.7163 8.23157 12.7175 8.23274C12.7172 8.23216 12.7169 8.23216 12.7169 8.23157C12.7175 8.23274 12.7181 8.23274 12.7189 8.23333C12.7276 8.24029 12.7365 8.24776 12.7458 8.25471C12.7374 8.24776 12.7288 8.24087 12.7203 8.2345C13.3501 8.72106 13.9819 9.20585 14.6128 9.69073C14.9038 9.92441 15.1962 10.1547 15.4884 10.3861C15.7366 10.584 15.9894 10.7767 16.2324 10.9797C16.5702 11.2608 16.9076 11.5432 17.2454 11.8255C17.5063 12.0424 17.7609 12.2698 18.0178 12.492C18.0525 12.5221 18.0868 12.5521 18.1213 12.5822C18.0102 12.5209 17.8994 12.4596 17.7898 12.3959C17.3385 12.1344 16.8974 11.8561 16.4531 11.5825C16.1621 11.4043 15.8746 11.2192 15.5859 11.0375C14.9873 10.6603 14.3827 10.2906 13.7924 9.9001C13.3816 9.62936 12.9711 9.35803 12.5604 9.0867C12.2989 8.91373 12.0316 8.74647 11.7747 8.5672C11.0958 8.09448 10.4189 7.61957 9.74091 7.14517C9.55892 7.01672 9.38045 6.88307 9.20082 6.75059C8.78537 6.44514 8.37088 6.13961 7.95638 5.83416C7.38275 5.41183 6.81491 4.98196 6.24538 4.55443C6.00899 4.37743 5.77296 4.19918 5.53723 4.02159C5.58307 4.02723 5.62906 4.03236 5.67475 4.03814ZM8.71902 7.28724C8.74041 7.30401 8.76186 7.32078 8.78324 7.33704C8.77834 7.33294 8.77343 7.32891 8.76852 7.32547C8.75175 7.31272 8.73528 7.29998 8.71902 7.28724ZM7.18217 5.35786C7.18993 5.36423 7.19777 5.37002 7.20589 5.37639C7.20384 5.3747 7.20209 5.37346 7.20011 5.37229C7.19081 5.36474 7.18158 5.35727 7.17228 5.35032C7.17521 5.35259 7.17836 5.35493 7.18129 5.35727C7.18217 5.35845 7.18298 5.35845 7.18385 5.35955C7.18334 5.35837 7.18275 5.35837 7.18217 5.35786ZM12.7723 11.5696C13.2039 11.8497 13.6407 12.1204 14.0781 12.3929C14.3049 12.5335 14.5316 12.6746 14.7584 12.8158C14.3471 12.81 13.9361 12.803 13.525 12.795C13.2996 12.5728 13.0743 12.3507 12.8472 12.1308C12.6079 11.8982 12.3665 11.6685 12.1237 11.44C11.8668 11.1982 11.6146 10.9505 11.3519 10.7145C11.2619 10.6341 11.1723 10.5537 11.0823 10.4727C11.6459 10.8383 12.2088 11.204 12.7723 11.5696ZM11.2519 12.7429C11.1211 12.6214 10.9901 12.5011 10.8591 12.3796C10.6216 12.1598 10.3821 11.9428 10.1388 11.7281C10.1024 11.6958 10.0662 11.6633 10.03 11.6315C10.3575 11.8473 10.6855 12.0632 11.013 12.2789C11.2534 12.4375 11.4946 12.5959 11.7353 12.7545C11.5742 12.751 11.413 12.7476 11.2519 12.7429ZM8.27794 11.867C8.57849 12.0903 8.87845 12.3136 9.179 12.5381C9.25106 12.5913 9.32312 12.6457 9.3951 12.6989C9.23194 12.6954 9.06878 12.6913 8.90562 12.6873C8.90445 12.6312 8.89031 12.5786 8.8619 12.5288C8.78552 12.4299 8.71148 12.3292 8.63459 12.2303C8.56399 12.1401 8.48182 12.0602 8.39944 11.9815C8.35432 11.9387 8.30797 11.8965 8.26169 11.8548C8.26718 11.8589 8.27245 11.8624 8.27794 11.867ZM7.19894 12.5225C7.26983 12.5641 7.34072 12.6052 7.41153 12.6462C7.2825 12.6421 7.15353 12.6375 7.02479 12.6329C6.98547 12.5878 6.94555 12.5427 6.90476 12.4987C6.79975 12.3853 6.69414 12.2736 6.58686 12.1631C6.79045 12.2836 6.99499 12.4027 7.19894 12.5225ZM37.5628 13.631C37.5649 13.6211 37.5668 13.6118 37.5689 13.602C37.5805 13.5794 37.5883 13.5563 37.5981 13.5332C37.9591 13.7252 38.3204 13.9173 38.6826 14.1077C38.7391 14.1406 38.7955 14.1731 38.8518 14.2067C39.1243 14.3646 39.3957 14.522 39.663 14.6886C39.9037 14.8384 40.1446 14.9889 40.3853 15.1393C40.5131 15.2191 40.6438 15.2955 40.77 15.3788C40.619 15.3163 40.4683 15.2538 40.3173 15.1919C39.6364 14.9125 38.9566 14.6301 38.2774 14.3454C38.2786 14.3454 38.2801 14.3466 38.2814 14.3466C38.2392 14.3282 38.197 14.3102 38.155 14.2917C38.0917 14.2582 38.0281 14.2252 37.9644 14.1916C37.9039 14.1593 37.8435 14.1279 37.7821 14.0956C37.7136 14.0585 37.643 14.0256 37.5736 13.9908C37.5573 13.9827 37.5406 13.9746 37.5241 13.9665C37.5371 13.8549 37.551 13.7427 37.5628 13.631ZM39.5258 18.3918C39.5773 18.4404 39.6221 18.4937 39.6658 18.5491C39.6299 18.5641 39.5938 18.5792 39.558 18.5948C39.5467 18.5931 39.5357 18.5896 39.5244 18.5873C39.4912 18.5537 39.4582 18.5202 39.4235 18.4878C39.3136 18.3855 39.2034 18.283 39.0931 18.1806C39.1958 18.2136 39.2985 18.2449 39.4012 18.2772C39.4428 18.3154 39.485 18.3525 39.5258 18.3918ZM37.4847 18.5075C37.6404 18.57 37.7963 18.6319 37.9522 18.6932C38.1633 18.7765 38.3739 18.861 38.5895 18.9333C38.6187 18.9431 38.6485 18.9518 38.678 18.9605C38.4127 19.0681 38.1466 19.1739 37.8782 19.2746C37.866 19.2792 37.8538 19.2839 37.8417 19.2885C37.8414 19.2387 37.8371 19.189 37.8275 19.1404C37.8061 19.0292 37.7613 18.9286 37.7141 18.8262C37.6739 18.7412 37.6103 18.6643 37.5515 18.5907C37.5293 18.563 37.507 18.5353 37.4847 18.5075ZM41.5259 17.753C41.5004 17.7409 41.4741 17.7294 41.4486 17.7172C41.4974 17.7126 41.5447 17.6999 41.5921 17.6721C41.5978 17.6687 41.6033 17.664 41.6091 17.6599C41.6233 17.6733 41.6369 17.6865 41.6508 17.6999C41.6092 17.7172 41.5675 17.7357 41.5259 17.753ZM49.5609 13.7918C49.5129 13.7531 49.4634 13.7161 49.4125 13.6802C49.4858 13.7039 49.558 13.7288 49.6315 13.7519C49.6081 13.7652 49.5843 13.7785 49.5609 13.7918ZM50.2757 13.2208C50.1059 13.1849 49.939 13.1352 49.7736 13.0831C49.7669 13.0669 49.7591 13.0513 49.7498 13.0374C49.7024 12.9662 49.6579 12.8933 49.6101 12.8216C49.6304 12.8239 49.6509 12.8251 49.6718 12.8251C49.8048 12.8239 49.9301 12.7614 50.0166 12.6636C50.0643 12.6098 50.1123 12.5381 50.1306 12.4669C50.1427 12.4241 50.1503 12.3807 50.152 12.3356C50.1471 12.2899 50.1401 12.2441 50.1326 12.1979C50.1268 12.1846 50.1219 12.1713 50.1161 12.1585C50.1161 12.1585 50.1161 12.1579 50.1158 12.1573C50.1202 12.162 50.1245 12.1655 50.1288 12.1695C50.1988 12.2377 50.2647 12.3107 50.3325 12.3807C50.4059 12.4565 50.4792 12.5322 50.5523 12.6075C50.6718 12.7313 50.7834 12.8615 50.8928 12.9939C50.8228 13.0367 50.7531 13.0796 50.6833 13.1218C50.607 13.1681 50.5298 13.2132 50.4534 13.2595C50.3943 13.2468 50.335 13.2335 50.2757 13.2208ZM3.16508 4.7556C3.29324 4.85505 3.42139 4.95398 3.54955 5.05351C3.83179 5.27276 4.1174 5.48682 4.40234 5.7044C4.66671 5.90571 4.9291 6.11223 5.19699 6.30951C5.86201 6.79951 6.52644 7.28958 7.19117 7.77899C7.44551 7.99422 7.69802 8.21055 7.95199 8.42586C8.45304 8.84994 8.96047 9.267 9.44871 9.705C9.83149 10.0481 10.2133 10.3905 10.5957 10.7342C10.7829 10.902 10.9705 11.068 11.1543 11.2399C11.6544 11.7097 12.1543 12.1795 12.6483 12.6555C12.6908 12.6967 12.733 12.7383 12.7756 12.7794C12.7478 12.7788 12.72 12.7776 12.6919 12.7776C12.4816 12.6353 12.2717 12.493 12.0596 12.353C11.6879 12.1077 11.3159 11.8624 10.9436 11.6171C10.3708 11.2387 9.79722 10.8604 9.2244 10.482C8.67105 10.1164 8.11595 9.75363 7.56752 9.38044C7.18561 9.12061 6.80349 8.86086 6.42173 8.60059C6.166 8.39459 5.91034 8.18924 5.65432 7.98324C5.46458 7.83106 5.27051 7.68474 5.07659 7.53718C4.62651 7.19467 4.17986 6.84755 3.72458 6.51083C3.65545 6.45993 3.58573 6.40896 3.51631 6.35748C3.47207 6.12665 3.42543 5.89583 3.37402 5.66727C3.30562 5.36306 3.2356 5.05878 3.16508 4.7556ZM3.9215 10.0342C3.90876 9.62167 3.88159 9.21091 3.84578 8.80073C3.86547 8.8175 3.8851 8.83427 3.9048 8.85104C4.23772 9.1305 4.57041 9.40937 4.90303 9.68933C5.1756 9.91789 5.43938 10.1562 5.70719 10.3899C5.94616 10.5988 6.18364 10.8083 6.41733 11.0229C6.64296 11.2289 6.87122 11.4326 7.09312 11.6425C7.12468 11.6726 7.15646 11.7021 7.18803 11.7322C7.0026 11.6223 6.81718 11.5118 6.63168 11.4019C6.39536 11.2607 6.15992 11.1184 5.92272 10.9784C5.76446 10.8841 5.60562 10.7904 5.44773 10.6961C5.37516 10.6533 5.30281 10.6099 5.23016 10.567C5.14016 10.5132 5.04877 10.4623 4.95481 10.4137C4.85697 10.3639 4.75174 10.3258 4.65046 10.2836C4.58857 10.2674 4.5264 10.2674 4.46452 10.2836C4.40513 10.3004 4.35364 10.3305 4.31007 10.3738C4.26664 10.4172 4.23713 10.4693 4.22065 10.5283C4.19341 10.6244 4.2137 10.71 4.25536 10.7973C4.27741 10.843 4.29821 10.887 4.32537 10.9309C4.35804 10.9853 4.40784 11.0374 4.45002 11.0848C4.5357 11.182 4.63925 11.2619 4.73438 11.3481C4.79546 11.403 4.85331 11.4609 4.91262 11.5176C5.07022 11.6686 5.22826 11.8196 5.38585 11.9706C5.53225 12.1106 5.67197 12.2582 5.81456 12.4016C5.8229 12.4103 5.83154 12.419 5.84033 12.4276C5.76307 12.3842 5.68588 12.3414 5.60833 12.2986C5.41946 12.1921 5.22965 12.0868 5.04137 11.9792C4.83134 11.8601 4.62218 11.7397 4.41215 11.6217C4.28173 11.5471 4.15123 11.4736 4.02022 11.3996C3.99363 11.3845 3.9669 11.3695 3.94032 11.3545C3.94002 11.2723 3.93973 11.1902 3.93915 11.108C3.93658 10.7504 3.93277 10.3923 3.9215 10.0342ZM37.4002 14.9408C37.5732 15.0281 37.7462 15.1167 37.9192 15.2052C38.0459 15.2694 38.1682 15.3451 38.2917 15.4146C38.4629 15.5117 38.6345 15.6083 38.8058 15.7056C38.9131 15.7663 39.0152 15.8381 39.1191 15.9046C39.2938 16.0169 39.4682 16.1286 39.6426 16.2396C39.7418 16.3032 39.8356 16.375 39.9307 16.4433C40.0707 16.5439 40.2105 16.6446 40.3505 16.7446C40.1983 16.6909 40.0479 16.6318 39.898 16.574C39.6461 16.4768 39.3938 16.3807 39.1416 16.2841C38.7552 16.1349 38.3684 15.9862 37.9834 15.8335C37.9405 15.8149 37.898 15.7976 37.8555 15.779C37.7323 15.7177 37.6082 15.6593 37.4823 15.602C37.4242 15.5755 37.3678 15.558 37.3094 15.5535C37.3409 15.3498 37.3713 15.145 37.4002 14.9408ZM36.7488 18.7529C36.7543 18.7192 36.761 18.6851 36.7668 18.651C36.8629 18.7609 36.9568 18.8725 37.0474 18.9877C37.09 19.0456 37.1267 19.1034 37.1582 19.166C37.1709 19.2018 37.1819 19.2377 37.1903 19.2752C37.1906 19.2798 37.1906 19.2845 37.1903 19.2897C37.1885 19.2978 37.1865 19.3059 37.1842 19.3146C37.1643 19.3267 37.144 19.3383 37.1232 19.3499C36.9873 19.3961 36.8472 19.4262 36.7072 19.4575C36.6994 19.4587 36.6922 19.4621 36.6844 19.4645C36.6962 19.2272 36.721 18.9906 36.7488 18.7529ZM44.9818 16.1749C44.6604 16.3299 44.3387 16.4855 44.0165 16.64C43.7556 16.5393 43.4946 16.4387 43.2337 16.338C43.2184 16.3068 43.2005 16.2767 43.18 16.249C43.2181 16.2617 43.2563 16.2738 43.2948 16.2854C43.4327 16.3265 43.5777 16.3577 43.7215 16.3716C43.8722 16.3854 44.0189 16.3601 44.1684 16.3496C44.2749 16.3415 44.3681 16.3125 44.4456 16.2351C44.5482 16.1315 44.5754 15.9932 44.546 15.8538C44.5347 15.8001 44.5252 15.7456 44.5118 15.693C44.4962 15.6305 44.4589 15.564 44.421 15.5119C44.3365 15.3974 44.237 15.3175 44.1225 15.2342C44.1123 15.2272 44.1022 15.2192 44.0918 15.2122C44.1977 15.255 44.3038 15.2956 44.4111 15.3349C44.6032 15.4055 44.799 15.4645 44.9914 15.5379C45.3154 15.6622 45.7635 15.8052 46.0363 15.5015C46.1196 15.4078 46.1674 15.2978 46.1801 15.174C46.1893 15.0727 46.156 14.9819 46.1068 14.8951C46.0877 14.8609 46.0632 14.8297 46.0356 14.8014C46.2236 14.8778 46.4132 14.9495 46.602 15.0242C46.7443 15.0803 46.8858 15.1358 47.0304 15.1821C46.3544 15.5263 45.6647 15.8451 44.9818 16.1749ZM52.3426 12.3287C52.3512 12.3472 52.3587 12.3657 52.3651 12.3854C52.357 12.3657 52.3489 12.3461 52.3408 12.3275C52.3414 12.3275 52.342 12.3281 52.3426 12.3287ZM52.2777 12.2292C52.2775 12.2304 52.2775 12.2309 52.2772 12.2315L52.2769 12.2315C52.2772 12.2304 52.2772 12.2298 52.2775 12.2292L52.2777 12.2292ZM52.0373 12.2228C52.0489 12.1713 52.0483 12.117 52.0391 12.0608C52.0712 12.0868 52.1039 12.1129 52.1354 12.1401C52.1036 12.1685 52.0701 12.1951 52.0373 12.2228Z" fill="#F194C0"/>
</svg>
