<svg  viewBox="0 0 18 18" fill="none" xmlns="http://www.w3.org/2000/svg">
<path d="M13.4803 11.652C13.1626 11.4657 12.7721 11.4696 12.4559 11.6574L10.8547 12.6114C10.4963 12.8251 10.0486 12.8 9.71993 12.5433C9.15176 12.0996 8.2369 11.353 7.44099 10.5571C6.64509 9.7612 5.89848 8.84633 5.45475 8.27816C5.19805 7.94947 5.17301 7.50182 5.38666 7.14339L6.34065 5.54218C6.52926 5.22601 6.53083 4.83236 6.34457 4.51463L3.99519 0.501439C3.76746 0.113268 3.31511 -0.0776866 2.87764 0.02953C2.45268 0.132834 1.90095 0.384832 1.3226 0.963958C-0.488338 2.7749 -1.45016 5.8294 5.36005 12.6396C12.1703 19.4498 15.224 18.4888 17.0357 16.6771C17.6156 16.0971 17.8668 15.5446 17.9709 15.1189C18.0766 14.6822 17.8887 14.233 17.5014 14.006C16.5341 13.4402 14.4476 12.2186 13.4803 11.652Z" fill="white"/>
</svg>
