<svg xmlns="http://www.w3.org/2000/svg" xmlns:xlink="http://www.w3.org/1999/xlink"><symbol id="i-arrow"><path d="M50.354 4.354a.5.5 0 0 0 0-.708L47.172.464a.5.5 0 1 0-.707.708L49.293 4l-2.828 2.828a.5.5 0 1 0 .707.708l3.182-3.182zM0 4.5h50v-1H0v1z"/></symbol><symbol id="i-close" viewBox="0 0 22 22"><path d="M1 1l10 10m10 10L11 11m0 0L21 1 1 21"/></symbol><symbol id="i-draw-arrow" viewBox="0 0 54 22"><path d="M36.327.949a.584.584 0 0 0-.29.062l-.189.08a2.595 2.595 0 0 0-.226.18c-.139.118-.222.344-.258.514-.034.16-.034.316-.027.478.026.593.053 1.187.075 1.78.036.969.12 1.935.215 2.9-.232-.039-.464-.073-.696-.11-.422-.069-.842-.139-1.265-.204-.83-.13-1.66-.256-2.49-.384-1.788-.277-3.577-.54-5.362-.84-.87-.146-1.737-.304-2.605-.454-.88-.154-1.763-.294-2.643-.442-1.685-.285-3.36-.627-5.042-.934a165.144 165.144 0 0 0-10.743-1.59c-.238-.028-.476-.047-.715-.067l-.402-.033a5.206 5.206 0 0 0-1.248.046 2.424 2.424 0 0 0-.935.333c-.17.11-.412.313-.502.5-.117.244-.2.454-.212.726-.015.31.045.621.094.925.02.132.043.264.067.395.093.511.206 1.02.302 1.53.097.516.186 1.03.27 1.548.042.369.084.736.111 1.106.036.47.055.938.07 1.41.013.425.008.852.015 1.279.007.471.039.935.131 1.399.06.303.176.604.354.857.138.197.271.342.477.471.163.102.342.176.528.218.314.07.644.081.964.1.203.011.406.02.61.03.45.022.9.041 1.35.06.865.035 1.73.046 2.594.059 1.72.025 3.44.052 5.16.062l.65.001c1.518 0 3.036-.03 4.553-.076 1.812-.056 3.62-.171 5.43-.27 1.75-.095 3.503-.122 5.254-.2 1.11-.049 2.22-.121 3.326-.228.821-.08 1.643-.155 2.464-.226-.007.066-.017.132-.023.197-.033.331-.07.662-.11.993-.049.348-.1.697-.165 1.044-.08.433-.164.865-.245 1.297-.093.496-.168.993-.231 1.494-.05.385-.074.77-.045 1.159.025.348.097.675.247.992.067.14.14.247.246.369a1.36 1.36 0 0 0 .973.45c.272 0 .544-.083.806-.164a41.554 41.554 0 0 0 1.856-.621c.877-.318 1.733-.688 2.588-1.055.773-.333 1.554-.651 2.315-1.012.81-.385 1.614-.782 2.415-1.189.728-.369 1.46-.734 2.17-1.136.78-.44 1.544-.898 2.291-1.39.868-.569 1.76-1.122 2.54-1.811.449-.4.925-.983.752-1.628a1.526 1.526 0 0 0-.143-.37 2.139 2.139 0 0 0-.25-.323c-.094-.101-.236-.196-.345-.275a42.98 42.98 0 0 0-1.257-.879 197.242 197.242 0 0 0-2.233-1.496c-.675-.446-1.351-.897-2.048-1.306-.374-.218-.744-.444-1.123-.652-.384-.212-.768-.425-1.153-.635-.769-.423-1.538-.845-2.287-1.3-1.558-.95-3.108-1.912-4.668-2.857-.51-.308-1.027-.63-1.596-.822a1.373 1.373 0 0 0-.491-.065zm.86 1.978a.426.426 0 0 0 .118.39l.08.072a2.78 2.78 0 0 0-.257-.035.563.563 0 0 0-.257.045c.006-.214.011-.426.015-.64.102.054.202.11.302.168zm6.138 14.039c-.218.1-.437.2-.657.294l-.333.145a12.722 12.722 0 0 0-.668-.62l-.074-.064c.182.065.366.125.553.175.222.057.447.106.67.163.139.036.299-.023.376-.144l.133.05zm-6.181 2.383a.583.583 0 0 0 .014-.01l-.014.01zm.016-.012a.042.042 0 0 1 .006-.005l-.006.005zm-.003-2.843l.21.14c.076.052.15.108.225.162l.137.1c-.012-.001-.025-.003-.037-.002-.094.004-.159.035-.242.071-.044.02-.103.081-.145.115-.08.063-.12.192-.12.29 0 .118.049.2.12.29.062.078.125.152.193.222l-.552-.226c.072-.387.145-.774.211-1.162zM3.755 7.914l-.009-.084c-.02-.173-.043-.345-.068-.518l.097.07c.573.406 1.142.822 1.725 1.217l.375.255 1.143.926c.17.138.337.28.504.422l1.16.982c.454.385.895.786 1.341 1.181.132.117.261.238.39.358l-.054-.002h-.028c-.288-.212-.574-.427-.86-.641l-1.052-.78c-.598-.444-1.198-.883-1.8-1.32-.549-.398-1.1-.794-1.648-1.19-.406-.291-.81-.586-1.216-.877zm-.304-3.74l-.335-.25-.075-.057c.442-.027.888.008 1.33.04.793.634 1.594 1.26 2.398 1.878l-.005-.004.019.015.042.032-.008-.006c.646.5 1.294.998 1.94 1.495.77.596 1.537 1.196 2.307 1.791 1.165.92 2.316 1.854 3.464 2.793.196.16.39.322.584.484a2110.135 2110.135 0 0 0-1.361-.841c-.574-.355-1.138-.728-1.706-1.095-.508-.328-1.019-.65-1.517-.994L8.147 7.81c-.257-.177-.51-.36-.76-.545L7.071 7c-.238-.201-.487-.39-.73-.584-.576-.46-1.144-.93-1.732-1.371l-1.159-.87zm33.408.859c.074.05.146.1.218.152.174.124.348.249.523.37.331.231.657.47.992.697l.542.368c-.146-.062-.29-.127-.437-.185-.168-.068-.34-.123-.508-.19-.154-.06-.304-.13-.461-.18a1.108 1.108 0 0 0-.404-.054l-.049-.028-.376-.218-.017-.01a22.85 22.85 0 0 1-.023-.722zm11.45 7.55c-.033-.01-.065-.022-.097-.033l-.645-.24c-.122-.062-.244-.124-.366-.188-.583-.393-1.174-.773-1.762-1.16-.674-.442-1.36-.867-2.041-1.3-.25-.158-.498-.321-.752-.475-.358-.22-.717-.437-1.076-.656l-.52-.316.26.127c.578.282 1.149.581 1.722.873l.179.091.638.409c.233.149.473.287.71.428.576.342 1.146.697 1.733 1.018l.894.49.452.368c.175.142.345.29.517.435l.153.13zm-35.1-7.453l.632.114c.05.042.102.084.154.124l.171.132.616.47c.217.166.435.328.656.488.577.417 1.152.837 1.732 1.252 1.328.95 2.656 1.902 3.98 2.859.573.413 1.137.838 1.704 1.259.206.152.41.306.615.46l-.022-.011-1.354-.734c-.215-.116-.433-.228-.643-.35l-1.07-.623c-.576-.336-1.155-.665-1.724-1.013L17.35 8.76c-.25-.151-.503-.296-.747-.456-.63-.41-1.262-.819-1.891-1.232-.118-.078-.232-.16-.348-.241l-.653-.452-.785-.547c-.473-.333-.945-.67-1.428-.987.571.091 1.141.185 1.71.284zm3.463.65l.26.197c.29.218.574.441.866.653l.996.724c.234.17.465.343.703.506.599.414 1.198.83 1.799 1.241.403.278.806.554 1.21.83.223.153.44.313.66.47l.756.544c.105.075.21.149.313.226l1.146.87.314.248-.213-.128c-.304-.18-.612-.355-.912-.543l-2.15-1.339c-.614-.384-1.219-.785-1.828-1.179-.226-.147-.457-.289-.681-.44l-1.017-.687c-.288-.195-.58-.386-.866-.584l-1.007-.704A115.95 115.95 0 0 1 15.4 5.53l.346.064.927.186zM37.06 3.95a.574.574 0 0 1 0 0zm1.325.382c.12.051.237.107.356.16.23.184.46.367.693.546.636.49 1.281.966 1.936 1.43.297.21.593.427.896.63l1.296.863c.261.174.531.336.798.502l1.158.72.05.032.508.392-.085-.066c.258.209.518.416.778.623l-.054-.035-.752-.493-1.018-.67-.831-.547-.056-.035-.634-.453c-.285-.204-.58-.392-.871-.587l-1.21-.814c-.26-.175-.533-.334-.8-.5l-1.236-.766c-.08-.05-.163-.093-.245-.138l-.723-.401-.303-.168-.345-.255a4.93 4.93 0 0 1-.389-.343c.373.08.731.226 1.082.373zm9.734 7.06l-.182-.098a.34.34 0 0 0 .003-.162c.112.094.226.188.337.283l.183.158c-.114-.06-.228-.12-.34-.181zm-22.57.015l-.221-.166.016.009c.534.307 1.076.604 1.624.887.225.116.452.225.68.335l.463.225c-.315-.005-.63-.01-.944-.013-.537-.43-1.071-.862-1.619-1.277zm6.305 1.28a6.95 6.95 0 0 0-.049-.03c.087.004.174.003.26.007a.39.39 0 0 0 .338-.195c.066-.112.08-.285 0-.396-.102-.145-.198-.295-.323-.421-.137-.138-.302-.249-.457-.367l-.148-.116c.315.176.63.352.95.522.18.096.36.186.543.277.164.082.314.188.474.277.085.049.176.09.267.125.103.04.2.055.309.069.024 0 .049 0 .073-.003a.533.533 0 0 0 .235-.059l.359.23c.105.068.25.023.312-.081a.232.232 0 0 0-.082-.312l-.312-.201a.4.4 0 0 0 .014-.086l.208.113c.354.192.709.382 1.063.573-1.32.07-2.64.113-3.963.117-.024-.014-.048-.028-.07-.043zm1.206-4c.06.052.12.105.182.155.09.073.187.138.284.202.156.1.318.19.475.287l.084.053-.005.01a.366.366 0 0 0-.012.068l-1.446-.85.438.075zm6.957 3.735l-.797-.526c-.295-.196-.599-.377-.898-.566l-.228-.143-.974-.638c-.21-.136-.416-.276-.628-.406l-.08-.048.395.208.546.286c.055.03.11.057.164.09l1.04.616.576.342c.08.047.161.091.239.141.606.391 1.213.78 1.82 1.17l.769.503-.455-.222c-.129-.064-.253-.138-.379-.205-.255-.14-.511-.278-.766-.416-.115-.062-.23-.123-.344-.186zm-2.607.05a.966.966 0 0 0-.62-.27c-.284-.162-.57-.322-.856-.482a.45.45 0 0 0-.12-.115c-.56-.366-1.14-.7-1.707-1.057l-.359-.24c-.238-.158-.473-.319-.71-.48-.265-.18-.532-.357-.794-.54l-.655-.457.352.19c.187.1.367.211.55.319l1.24.73c.176.104.356.204.528.315l1.019.653c.505.324 1.011.648 1.513.98l1.213.796.262.173-.76-.402a.938.938 0 0 0-.096-.113zm-.094-4.191c.322.214.644.431.97.642a230.555 230.555 0 0 0 4.613 2.917c-.469-.276-.937-.553-1.405-.831-.21-.124-.418-.256-.633-.373l-.972-.532c-.396-.217-.79-.434-1.187-.65-.11-.06-.224-.114-.336-.17-.26-.13-.52-.256-.783-.376-.124-.056-.25-.11-.375-.163l-.355-.21c.019-.039.033-.08.047-.12.072-.086.13-.2.148-.314l.268.18zm-13.55-1.188a813.132 813.132 0 0 0 1.118.207c.04.066.092.119.158.158.692.5 1.39.993 2.084 1.492.342.247.685.492 1.028.738.327.236.649.48.974.72.167.123.332.248.498.372a22.774 22.774 0 0 1-.236-.129c-.637-.354-1.277-.702-1.91-1.062-.624-.355-1.249-.708-1.866-1.074-.72-.426-1.437-.859-2.15-1.297a.369.369 0 0 0-.446.577c.145.135.299.258.458.376-.134-.078-.267-.156-.399-.236-.581-.352-1.166-.7-1.74-1.062l-.494-.31c.974.174 1.949.349 2.923.53zm-4.006-.328c.14.09.28.18.422.269l1.17.744c.2.127.405.249.61.372a.475.475 0 0 1 .021.013c.284.174.566.353.853.522l.185.108.307.187c1.229.746 2.46 1.49 3.686 2.24.365.222.726.453 1.089.68l.406.26c-.141-.066-.281-.135-.42-.204-.245-.12-.49-.234-.733-.357-.474-.242-.938-.5-1.404-.757-.3-.166-.596-.34-.894-.511-.598-.344-1.202-.68-1.79-1.041l-1.317-.807c-.227-.14-.46-.271-.681-.418l-1.071-.708c-.268-.178-.541-.35-.805-.533l-1.018-.71.576.104c.246.214.534.373.808.547zm2.719 5.848l.222.12-.337.01a1.745 1.745 0 0 0-.134-.15c-.13-.128-.281-.234-.426-.344l-.01-.008.685.372zm-2.386.058c.077.043.155.084.233.126-.356.007-.711.014-1.067.019-.08-.078-.162-.155-.244-.232-.13-.123-.266-.243-.4-.363-.284-.253-.572-.502-.859-.753-.281-.247-.572-.483-.86-.723l-.196-.165 2.106 1.328c.422.265.853.517 1.287.763zm-2.727.159h-.83c-.245-.197-.48-.405-.72-.607-.293-.244-.583-.49-.876-.733l-.843-.696c.315.2.632.398.948.598.388.245.774.492 1.165.733.384.236.767.476 1.155.705zm30.83 1.047a19.382 19.382 0 0 1-2.1-1.026l-.133-.076-.209-.154c-.242-.178-.482-.358-.725-.535-.326-.246-.655-.49-.989-.726l-.935-.66 1.276.72c.462.26.931.508 1.4.758l.311.167a.274.274 0 0 0 .311.199c.072.035.143.071.216.103l.125.054c.3.197.593.405.888.609.332.228.657.463.983.701.025.02.05.037.075.056a6.583 6.583 0 0 1-.495-.19zM36.958 6.932l.03.038-.028-.016a.827.827 0 0 0-.002-.022zM10.937 4.757a.373.373 0 0 0-.049.565c.082.078.161.158.248.23.094.081.19.158.288.233a22.346 22.346 0 0 0 1.052.764l1.245.858c.602.415 1.218.81 1.83 1.212.595.392 1.183.795 1.773 1.195.24.164.486.323.723.493l1.103.792c.472.34.936.688 1.4 1.038l.097.075a27.338 27.338 0 0 1-.884-.506c-.168-.098-.338-.195-.504-.3l-.894-.562c-.428-.268-.855-.535-1.282-.804-.158-.1-.313-.198-.467-.302l-2.18-1.477c-.206-.139-.403-.29-.604-.435l-1.253-.908c-.575-.415-1.139-.843-1.706-1.267C10.37 5.276 9.87 4.9 9.37 4.522c.523.075 1.045.154 1.567.235zm-.257 1.901l-.002-.001-.004-.003a.028.028 0 0 1 .006.004zm-5.005-2.62c.69.085 1.378.173 2.068.26.095.093.194.18.297.264.219.18.446.35.667.527l.604.48c.454.362.905.729 1.363 1.085l-.012-.009.024.019.028.02h-.001a.01.01 0 0 1 .003.003l.021.016-.01-.008.091.07c-.01-.006-.019-.013-.028-.022l1.256.97.258.2c.028.025.058.045.089.069l.19.146h-.001l.058.045-.057-.044.062.047-.005-.003.05.038-.004-.003.028.022.003.003v-.001l.002.001.027.022a.683.683 0 0 0-.026-.02c.63.486 1.262.97 1.893 1.456.29.233.583.464.875.695.249.198.501.39.744.594.338.28.676.563 1.013.845.261.217.516.445.773.667l.103.09a17.05 17.05 0 0 1-.331-.186c-.451-.262-.893-.54-1.337-.814-.29-.178-.578-.363-.867-.545-.599-.377-1.203-.746-1.794-1.137l-1.232-.813c-.261-.173-.528-.34-.785-.52-.68-.473-1.356-.947-2.034-1.422-.182-.128-.36-.262-.54-.394l-1.245-.917c-.573-.422-1.141-.852-1.71-1.28l-.709-.532.138.016zm3.044 3.25zm-1.537-1.93l.024.018a.89.89 0 0 0-.034-.026l.01.007.002.003c0-.002-.001-.002-.002-.002zm5.59 6.212c.432.28.869.55 1.306.823.227.14.454.282.68.423l-1.233-.021c-.225-.222-.45-.444-.678-.664-.24-.233-.48-.463-.723-.691-.257-.242-.51-.49-.772-.726l-.27-.241 1.69 1.097zm-1.52 1.173c-.13-.122-.262-.242-.393-.363a40.98 40.98 0 0 0-.72-.652l-.109-.096.983.647.722.476-.483-.012zm-2.974-.876l.901.671c.072.053.144.108.216.16l-.49-.01a.328.328 0 0 0-.043-.16c-.076-.098-.15-.199-.227-.298-.071-.09-.153-.17-.236-.248a7.321 7.321 0 0 0-.137-.127l.016.012zm-1.08.655l.214.124a97.935 97.935 0 0 1-.387-.013l-.12-.134c-.105-.114-.21-.225-.318-.336l.612.36zm30.365 1.109l.006-.029.03-.069c.36.192.721.384 1.084.575l.169.099c.272.158.544.315.811.482l.722.45c.128.08.259.157.385.24l-.453-.187c-.68-.28-1.36-.562-2.04-.847l.004.002-.126-.055-.19-.1-.183-.096c-.068-.037-.139-.07-.208-.105l-.05-.024.039-.336zm1.963 4.76c.051.05.096.103.14.158l-.108.046-.034-.008-.1-.1-.33-.306c.102.033.204.064.307.096.042.038.084.075.125.115zm-2.041.117l.467.185c.211.083.422.168.638.24.029.01.058.019.088.027-.265.108-.531.214-.8.315l-.036.014c0-.05-.005-.1-.014-.149a1.37 1.37 0 0 0-.114-.314c-.04-.085-.104-.162-.163-.235l-.066-.084zm4.04-.755l-.076-.036a.338.338 0 0 0 .143-.045c.006-.003.011-.008.017-.012l.042.04-.125.053zm8.036-3.961a2.888 2.888 0 0 0-.148-.112c.073.024.145.049.219.072l-.071.04zm.715-.571a5.386 5.386 0 0 1-.502-.138.263.263 0 0 0-.024-.046c-.048-.07-.092-.144-.14-.215a.47.47 0 0 0 .406-.158.51.51 0 0 0 .136-.328 2.574 2.574 0 0 0-.02-.138l-.016-.04.013.011c.07.069.136.142.204.212l.22.226c.119.124.23.255.34.387l-.21.128-.23.137-.177-.038zM3.166 4.756c.127.1.255.198.384.298.282.219.567.433.852.65.265.202.527.408.795.606l1.994 1.469c.255.215.507.432.761.647.501.424 1.008.841 1.497 1.279l1.147 1.03c.187.167.374.333.558.505.5.47 1 .94 1.494 1.415l.128.124-.084-.001c-.21-.143-.42-.285-.632-.425l-1.116-.736-1.72-1.135c-.553-.366-1.108-.728-1.656-1.102L6.422 8.6c-.256-.205-.512-.41-.768-.617-.19-.152-.383-.298-.577-.446-.45-.342-.897-.69-1.352-1.026l-.209-.154c-.044-.23-.09-.461-.142-.69-.068-.304-.138-.608-.209-.911zm.756 5.278c-.013-.412-.04-.823-.076-1.233l.059.05.998.838c.273.229.536.467.804.7.24.21.477.42.71.634.226.206.454.41.676.62l.095.09-.556-.331c-.237-.141-.472-.284-.71-.424l-.474-.282-.218-.129a5.118 5.118 0 0 0-.275-.153c-.098-.05-.203-.088-.305-.13a.351.351 0 0 0-.43.245.366.366 0 0 0 .035.268c.022.046.043.09.07.134.033.054.083.106.125.154.086.097.19.177.284.263.061.055.12.113.179.17l.473.453c.146.14.286.287.429.43l.025.027a35.304 35.304 0 0 0-.232-.13c-.189-.106-.378-.211-.567-.319-.21-.119-.419-.24-.629-.357-.13-.075-.26-.148-.392-.222l-.08-.046v-.246a44.24 44.24 0 0 0-.018-1.074zM37.4 14.941l.52.264c.126.064.248.14.372.21l.514.29c.107.061.21.133.313.2l.524.335c.099.063.193.135.288.203l.42.302c-.153-.054-.303-.113-.453-.171l-.756-.29c-.387-.15-.774-.298-1.159-.45-.042-.02-.085-.036-.127-.055a11.92 11.92 0 0 0-.374-.177.51.51 0 0 0-.173-.049c.032-.203.062-.408.091-.612zm-.651 3.812l.018-.102c.096.11.19.221.28.337.043.058.08.115.111.178a.939.939 0 0 1 .032.11v.014a.639.639 0 0 1-.006.025l-.06.035c-.137.046-.277.076-.417.107l-.023.008c.012-.238.037-.474.065-.712zm8.233-2.578l-.965.465-.783-.302a.576.576 0 0 0-.054-.089 2.275 2.275 0 0 0 .541.123c.151.013.298-.012.447-.022a.413.413 0 0 0 .278-.115.405.405 0 0 0 .1-.381c-.011-.054-.02-.108-.034-.161a.56.56 0 0 0-.091-.181 1.288 1.288 0 0 0-.298-.278l-.031-.022c.106.043.212.084.32.123.191.07.387.13.58.203.323.124.772.267 1.044-.037a.57.57 0 0 0 .144-.327.472.472 0 0 0-.073-.279.449.449 0 0 0-.071-.094c.188.077.377.149.566.223.142.056.284.112.428.158-.676.344-1.365.663-2.048.993zm7.36-3.846zm-.064-.1v.003h-.001v-.003zm-.24-.006a.423.423 0 0 0 .001-.162c.032.026.065.052.096.08l-.098.082z"/></symbol><symbol id="i-send"><path d="M2.01 21L22 12 2.01 3 2 10l14.286 2L2 14l.01 7z"/></symbol></svg>