<svg width="170" height="56" viewBox="0 0 170 56" fill="none" xmlns="http://www.w3.org/2000/svg">
<path d="M167.647 28C167.647 30.982 165.817 34.1484 161.751 37.3222C157.709 40.4766 151.736 43.4043 144.176 45.8998C129.078 50.8836 108.093 54 84.8235 54C61.5537 54 40.5693 50.8836 25.4712 45.8998C17.9114 43.4043 11.9382 40.4766 7.89635 37.3222C3.82972 34.1484 2 30.982 2 28C2 25.018 3.82972 21.8516 7.89635 18.6778C11.9382 15.5234 17.9114 12.5957 25.4712 10.1002C40.5693 5.11637 61.5537 2 84.8235 2C108.093 2 129.078 5.11637 144.176 10.1002C151.736 12.5957 157.709 15.5234 161.751 18.6778C165.817 21.8516 167.647 25.018 167.647 28Z" fill="white" stroke="#254796" stroke-width="4"/>
<path fill-rule="evenodd" clip-rule="evenodd" d="M45.2169 21.3689C39.3094 21.4557 32.5332 16.0695 24.5407 20.587L24.0195 21.0214L23.4114 21.4557L22.8032 21.977L22.282 22.4982L21.6739 23.1932L21.1526 23.8882L20.7182 24.5832L20.3707 25.2782L20.1101 25.9732L19.9364 26.6682L19.8495 27.4501V28.1451V28.7532L20.0232 29.4482L20.197 30.0563L20.4576 30.6645L20.8051 31.2726L21.2395 31.7938L21.6739 32.3151L22.1951 32.7495L22.7164 33.1838L23.3245 33.5313L24.0195 33.8788L24.7145 34.0526L25.4095 34.2263L26.1913 34.4001H27.0601L27.9288 34.3132L28.7976 34.2263L29.7532 33.9657L30.622 33.6182L31.6645 33.2707L32.6201 32.7495L33.6626 32.1413L34.7051 31.3595L35.7476 30.5776L36.2688 30.0563L36.877 29.5351L37.3982 29.0138L38.0063 28.5795L38.5276 28.0582L39.0488 27.537L39.5701 27.0157L40.0913 26.4945L40.6126 26.0601L41.1338 25.5388L41.6551 25.0176L42.1763 24.5832L42.6976 24.062L43.3057 23.6276L43.8269 23.1932L44.3482 22.7589L44.9563 22.3245L45.4776 21.8901L46.0857 21.4557L46.6069 21.1082L47.2151 20.6739L47.8232 20.3264L48.5182 19.9789L49.1263 19.7182L49.8213 19.3707L50.5163 19.1101L51.2113 18.8495L51.9063 18.5889L52.6882 18.4151L59.2907 16.6776L58.335 16.9382L57.4663 17.2857L56.5975 17.5464L55.7288 17.8939L54.86 18.3282L54.0782 18.6757L53.2963 19.1101L52.5144 19.5445L51.7326 20.0657L51.0376 20.5001L50.3426 21.0214L49.5607 21.5426L48.9526 22.0639L48.2576 22.672L47.5626 23.1932L46.8676 23.8013L46.1726 24.4095L45.5644 25.0176L44.8694 25.6257L44.2613 26.2338L43.5663 26.842L42.9582 27.4501L42.2632 28.1451L41.5682 28.7532L40.9601 29.3613L40.2651 29.9695L39.5701 30.6645L38.8751 31.2726L38.0932 31.8807L36.7901 32.9232L35.487 33.8788L34.2707 34.5738L32.9676 35.2688L31.7513 35.7901L30.622 36.1376L29.4926 36.4851L28.3632 36.6588H27.2338H26.1913L25.2357 36.4851L24.2801 36.3113L23.4114 36.0507L22.6295 35.6163L21.8476 35.182L21.1526 34.6607L20.5445 34.1395L19.9364 33.4445L19.502 32.8363L19.0676 32.0545L18.7201 31.2726L18.4595 30.4907L18.2857 29.7088V28.8401V27.9713L18.3726 27.1026L18.6332 26.147L18.8939 25.2782L19.3282 24.4095L19.8495 23.5407L20.5445 22.672L21.3264 21.8032L22.0214 21.1082L22.7164 20.5001L23.4982 19.9789L24.1932 19.4576L24.8882 19.0232L25.6701 18.6757L26.3651 18.3282L27.147 18.0676L27.842 17.8939L28.6238 17.7201L29.3188 17.6332L30.1007 17.5464H30.7957H31.5776H32.3595L33.0545 17.6332L33.8363 17.7201L34.6182 17.8939L35.3132 18.0676L36.0951 18.2414L36.877 18.4151L37.572 18.6757L38.3538 18.9364L39.1357 19.197L39.9176 19.4576L40.6126 19.7182L41.3944 19.9789L42.1763 20.2395L42.9582 20.5001L43.7401 20.8476L44.4351 21.1082L45.2169 21.3689ZM50.6032 36.4851L50.5163 36.6588L50.4294 37.0063L50.2557 37.4407V37.7013V37.9619L50.4294 38.1357L50.6032 38.3094L50.9507 38.4832L45.9988 35.877L45.7382 35.7032L45.5644 35.5295L45.4776 35.3557L45.3907 35.182L45.4776 35.0082L45.5644 34.6607L45.6513 34.3132L45.7382 34.0526L45.8251 33.7051L45.9119 33.4445V33.097L45.9988 32.8363V32.4888L46.0857 32.2282V31.8807V31.6201V31.3595V31.0988V30.7513V30.4907V30.2301V29.9695L45.9988 29.7088V29.4482L45.9119 29.1007V28.8401L45.8251 28.5795L45.7382 28.3188L45.6513 28.0582L45.5644 27.7976L45.4776 27.537L45.3907 27.1895L45.3038 26.9288L45.2169 26.6682L45.0432 26.4076L44.9563 26.147L44.8694 25.7995L49.4738 25.9732L49.6476 26.3207L49.8213 26.6682L49.9082 27.0157L50.0819 27.3632L50.1688 27.7107L50.3426 28.0582L50.4294 28.4057L50.5163 28.7532L50.6032 29.1007L50.6901 29.4482L50.7769 29.7957L50.8638 30.1432L50.9507 30.4907V30.8382L51.0376 31.0988V31.4463L51.1244 31.7938V32.1413V32.4888V32.9232V33.2707V33.6182L51.0376 33.9657V34.3132L50.9507 34.6607V34.7476H51.2982H51.6457H51.9932L52.3407 34.6607H52.775H53.1225H53.47L53.8175 34.5738H54.165L54.5125 34.487H54.9469L55.2944 34.4001H55.6419L55.9894 34.3132H56.4238L56.7713 34.2263L57.1188 34.1395L57.5532 34.0526L57.9007 33.9657L58.335 33.8788L58.6825 33.792L59.3775 33.6182L60.0725 33.3576L60.6807 33.097L61.2888 32.8363L61.81 32.4888L62.3313 32.1413L62.7657 31.7938L63.1132 31.3595L63.4607 31.012L63.8082 30.5776L64.0688 30.0563L64.2425 29.622L64.4163 29.1876L64.5032 28.6663L64.59 28.232L64.6769 27.7107V27.1895V26.6682L64.59 26.2338L64.5032 25.7126L64.3294 25.2782L64.1557 24.757L63.9819 24.3226L63.7213 23.8882L63.3738 23.4539L63.1132 23.0195L62.7657 22.672L62.3313 22.2376L61.9838 21.8901L61.5494 21.6295L61.0282 21.3689L60.5938 21.1082L60.0725 20.8476L59.5513 20.6739L59.03 20.5001L58.5088 20.4132L58.0744 20.2395H57.5532L57.0319 20.1526H56.5975H56.0763H55.555L55.1207 20.2395L54.5994 20.3264L61.7232 19.1101L62.3313 19.0232L62.9394 18.9364L63.5475 18.8495H64.1557L64.7638 18.9364H65.3719L65.98 19.0232L66.675 19.197L67.2831 19.2839L67.8913 19.5445L68.4994 19.7182L69.1944 20.0657L69.8025 20.3264L70.4106 20.6739L70.9319 21.1082L71.4531 21.5426L71.8875 21.977L72.3219 22.4982L72.7563 23.0195L73.1038 23.5407L73.3644 24.062L73.625 24.6701L73.8856 25.2782L74.0594 25.8863L74.2331 26.4945V27.1026L74.32 27.7107V28.3188L74.2331 28.927L74.1463 29.5351L73.9725 30.1432L73.7988 30.7513L73.4513 31.3595L73.1906 31.8807L72.8431 32.402L72.4088 32.9232L71.8875 33.4445L71.3663 33.8788L70.7581 34.3132L70.0631 34.7476L69.3681 35.0951L68.5863 35.4426L67.7175 35.7032L66.8488 35.9638L66.3275 36.0507L65.8931 36.1376L65.3719 36.3113L64.8507 36.3982L64.4163 36.4851L63.9819 36.572H63.4607L63.0263 36.6588L62.5919 36.7457L62.0707 36.8326H61.6363L61.2019 36.9195H60.7675L60.3332 37.0063H59.8119H59.3775L58.9432 37.0932H58.5088H58.0744H57.5532L57.1188 37.1801H56.6844H56.1632H55.7288H55.2944H54.7732H54.3388L53.8175 37.0932H53.3832H52.8619H52.4275H51.9063L50.6032 36.4851Z" fill="#A2D9F7"/>
<path fill-rule="evenodd" clip-rule="evenodd" d="M45.2169 21.3689L44.3482 21.5426C38.9619 19.5445 34.2707 17.8939 30.7088 18.1545C25.4095 18.5889 21.7607 21.3689 19.9363 24.757C17.9382 28.4057 19.0676 33.792 24.1063 35.6164C27.8419 37.0063 33.5757 35.4426 39.8307 29.622C47.4757 22.4114 51.2982 17.112 62.2444 15.6351C77.8819 13.4633 82.3993 34.0526 66.2406 37.1801C64.59 37.5276 48.8657 40.3076 49.7344 37.267C50.8638 32.8364 50.3425 30.9251 49.1263 27.1026C47.91 28.1451 46.9544 29.0139 46.0857 29.8826C44.435 31.2726 43.2188 32.5757 41.7419 33.7051C24.4538 47.692 9.51136 30.7514 20.8051 20.4133C28.8844 12.942 36.9638 16.9383 45.2169 21.3689ZM50.7769 25.9732C52.6882 28.927 53.47 32.1414 52.775 36.4851C59.1169 36.7457 73.3644 36.8326 73.625 28.1451C73.7119 23.367 69.1075 18.3283 61.6363 19.8051C58.4219 20.5001 55.0338 22.4114 50.7769 25.9732Z" fill="#FEFEFE"/>
<path fill-rule="evenodd" clip-rule="evenodd" d="M122.101 15.1139C123.144 15.1139 124.012 15.9826 124.012 16.9383C124.012 17.9808 123.144 18.8495 122.101 18.8495C121.059 18.8495 120.19 17.9808 120.19 16.9383C120.19 15.9826 121.059 15.1139 122.101 15.1139Z" fill="#A2D9F7"/>
<path fill-rule="evenodd" clip-rule="evenodd" d="M123.926 22.4114V37.6145C123.926 38.4832 123.057 39.0913 122.101 39.0913C121.059 39.0913 120.277 38.4832 120.277 37.6145V22.4114C120.277 21.5426 121.059 20.9345 122.101 20.9345C123.057 20.9345 123.926 21.5426 123.926 22.4114Z" fill="#264796"/>
<path fill-rule="evenodd" clip-rule="evenodd" d="M149.206 22.4114V37.6145C149.206 38.4832 148.337 39.0913 147.382 39.0913C146.339 39.0913 145.557 38.4832 145.557 37.6145V22.4114C145.557 21.5426 146.339 20.9345 147.382 20.9345C148.337 20.9345 149.206 21.5426 149.206 22.4114Z" fill="#264796"/>
<path fill-rule="evenodd" clip-rule="evenodd" d="M111.937 23.4539V28.7532H116.281C116.628 28.7532 116.889 29.2745 116.889 30.0564C116.889 30.7514 116.628 31.2726 116.281 31.2726H111.937V37.6145C111.937 38.4832 111.068 39.0913 110.112 39.0913C109.07 39.0913 108.288 38.4832 108.288 37.6145V22.4114C108.288 21.5426 109.07 20.9345 110.112 20.9345H116.281C116.628 20.9345 116.889 21.4558 116.889 22.1508C116.889 22.9326 116.628 23.4539 116.281 23.4539H111.937Z" fill="#264796"/>
<path fill-rule="evenodd" clip-rule="evenodd" d="M92.1294 20.9345C105.074 20.9345 104.639 22.4983 104.639 31.8807V37.6145C104.639 38.4832 103.857 39.0913 102.902 39.0913C101.859 39.0913 101.077 38.4832 101.077 37.6145V26.2339C100.643 23.8014 96.8206 23.8014 93.8669 23.8883V37.6145C93.8669 38.4832 92.9981 39.0913 92.0425 39.0913C91 39.0913 90.2181 38.4832 90.2181 37.6145V22.4114V22.3245C90.2181 22.2376 90.2181 22.1508 90.305 22.0639V21.977V21.8901L90.3919 21.8033V21.7164H90.4787V21.6295V21.5426H90.5656V21.4558H90.6525V21.3689H90.7394C90.7394 21.3689 90.7394 21.3689 90.8262 21.282C91 21.1951 91.1737 21.1083 91.3475 21.0214C91.4344 21.0214 91.5212 20.9345 91.6081 20.9345C91.695 20.9345 91.695 20.9345 91.695 20.9345H91.7819H91.8687H91.9556H92.0425C92.0425 20.9345 92.0425 20.9345 92.1294 20.9345Z" fill="#264796"/>
<path fill-rule="evenodd" clip-rule="evenodd" d="M129.659 20.9345C142.343 21.0214 141.995 22.5851 141.995 31.8807V37.6145C141.995 38.4832 141.127 39.0913 140.171 39.0913C139.129 39.0913 138.347 38.4832 138.347 37.6145V26.2339C137.912 23.8014 134.09 23.8014 131.136 23.8883V37.6145C131.136 38.4832 130.354 39.0913 129.312 39.0913C128.356 39.0913 127.487 38.4832 127.487 37.6145V22.4114C127.487 21.5426 128.356 20.9345 129.312 20.9345C129.399 20.9345 129.572 20.9345 129.659 20.9345Z" fill="#264796"/>
<path fill-rule="evenodd" clip-rule="evenodd" d="M86.6563 17.112V37.1801C86.6563 38.2226 85.7875 39.0913 84.8319 39.0913C83.7894 39.0913 83.0075 38.2226 83.0075 37.1801V17.112C83.0075 15.9826 83.7894 15.1139 84.8319 15.1139C85.7875 15.1139 86.6563 15.9826 86.6563 17.112Z" fill="#264796"/>
<path fill-rule="evenodd" clip-rule="evenodd" d="M45.2169 21.3689C37.0507 18.6758 28.9713 14.0714 21.3264 21.8033C12.552 30.6645 24.1063 43.8695 38.0932 31.8808C45.8251 25.2783 51.1244 17.6333 62.2444 16.1564C77.8819 14.0714 83.355 35.0082 67.1963 38.1357C65.5456 38.4832 49.2132 40.4814 50.2557 37.4407C51.7325 33.097 50.6032 29.1008 49.3 26.147C46.1726 28.8401 42.4369 32.4889 40.1782 34.3132C22.8901 48.3001 8.64262 30.8383 19.8495 20.4133C28.1895 12.5945 37.3113 16.417 45.2169 21.3689ZM49.9082 25.7126C52.1669 29.0139 53.0357 33.097 51.9063 37.0932C57.2057 37.267 61.5494 37.1801 66.8488 35.9639C76.8394 33.6182 75.9706 23.1933 69.1944 20.0658C62.3313 16.8514 56.0763 20.587 49.9082 25.7126Z" fill="#264796"/>
<path fill-rule="evenodd" clip-rule="evenodd" d="M147.382 15.1139C148.424 15.1139 149.293 15.9826 149.293 16.9383C149.293 17.9808 148.424 18.8495 147.382 18.8495C146.339 18.8495 145.47 17.9808 145.47 16.9383C145.47 15.9826 146.339 15.1139 147.382 15.1139Z" fill="#A2D9F7"/>
</svg>
