<svg width="39" height="48" viewBox="0 0 39 48" fill="none" xmlns="http://www.w3.org/2000/svg">
<path d="M19.5 0C8.73068 0 0 8.75783 0 19.5606C0 32.4244 12.6785 38.5824 14.2669 40.0157C15.889 41.4792 17.2291 44.76 17.7698 46.6201C18.0322 47.5234 18.7696 47.9804 19.5 48C20.2321 47.9787 20.9678 47.5217 21.2302 46.6201C21.7709 44.76 23.111 41.481 24.7331 40.0157C26.3215 38.5824 39 32.4244 39 19.5606C39 8.75783 30.2693 0 19.5 0ZM19.5 24.8953C16.5626 24.8953 14.1818 22.5072 14.1818 19.5606C14.1818 16.6141 16.5626 14.2259 19.5 14.2259C22.4374 14.2259 24.8182 16.6141 24.8182 19.5606C24.8182 22.5072 22.4374 24.8953 19.5 24.8953Z" fill="#2D55B7"/>
</svg>
