<svg width="74" height="60" viewBox="0 0 74 60" fill="none" xmlns="http://www.w3.org/2000/svg">
<mask id="path-1-outside-1" maskUnits="userSpaceOnUse" x="-0.0170059" y="-0.462402" width="74" height="61" fill="black">
<rect fill="white" x="-0.0170059" y="-0.462402" width="74" height="61"/>
<path d="M1.70561 0.542548C1.55311 0.557382 1.40808 0.61571 1.28776 0.710565C1.16743 0.805421 1.07687 0.932834 1.02684 1.07766C0.976816 1.22248 0.969425 1.37861 1.00555 1.52751C1.04167 1.67641 1.11979 1.8118 1.23061 1.9176L5.90565 6.5676V43.9172C5.90567 44.1294 5.98997 44.3329 6.13999 44.4829C6.29002 44.6329 6.49349 44.7172 6.70565 44.7172H72.2056C72.3117 44.7187 72.4169 44.6991 72.5153 44.6596C72.6137 44.6201 72.7032 44.5614 72.7787 44.4869C72.8542 44.4125 72.9141 44.3238 72.955 44.226C72.996 44.1282 73.017 44.0232 73.017 43.9172C73.017 43.8112 72.996 43.7062 72.955 43.6084C72.9141 43.5106 72.8542 43.4219 72.7787 43.3475C72.7032 43.273 72.6137 43.2144 72.5153 43.1748C72.4169 43.1353 72.3117 43.1157 72.2056 43.1172H7.50565V6.2676C7.50811 6.16163 7.48948 6.05625 7.45086 5.95754C7.41223 5.85883 7.35438 5.76876 7.28065 5.6926L2.38065 0.792597C2.29549 0.701093 2.19008 0.630836 2.07286 0.587421C1.95564 0.544006 1.82987 0.528641 1.70565 0.542597L1.70561 0.542548ZM15.6808 6.26755C15.4686 6.26757 15.2652 6.35185 15.1152 6.50187C14.9651 6.6519 14.8808 6.85538 14.8808 7.06755V38.1923C14.8808 38.4045 14.9651 38.608 15.1152 38.758C15.2652 38.908 15.4686 38.9923 15.6808 38.9923H27.856C27.9632 39.0145 28.0738 39.0145 28.181 38.9923H49.1314C49.2386 39.0145 49.3492 39.0145 49.4564 38.9923H63.1564C63.3686 38.9923 63.572 38.908 63.7221 38.758C63.8721 38.608 63.9564 38.4045 63.9564 38.1923V7.06755C63.9564 6.85538 63.8721 6.6519 63.7221 6.50187C63.572 6.35185 63.3686 6.26757 63.1564 6.26755H15.6812H15.6808ZM16.4808 7.86755H27.2056V16.8923C27.2041 16.9983 27.2237 17.1036 27.2632 17.202C27.3028 17.3003 27.3614 17.3899 27.4359 17.4654C27.5103 17.5408 27.599 17.6008 27.6968 17.6417C27.7946 17.6826 27.8996 17.7037 28.0056 17.7037C28.1116 17.7037 28.2166 17.6826 28.3144 17.6417C28.4122 17.6008 28.5009 17.5408 28.5753 17.4654C28.6498 17.3899 28.7085 17.3003 28.748 17.202C28.7875 17.1036 28.8071 16.9983 28.8056 16.8923V7.86755H48.4808V16.8923C48.4793 16.9983 48.4989 17.1036 48.5384 17.202C48.578 17.3003 48.6366 17.3899 48.7111 17.4654C48.7855 17.5408 48.8742 17.6008 48.972 17.6417C49.0698 17.6826 49.1748 17.7037 49.2808 17.7037C49.3868 17.7037 49.4918 17.6826 49.5896 17.6417C49.6874 17.6008 49.7761 17.5408 49.8505 17.4654C49.925 17.3899 49.9837 17.3003 50.0232 17.202C50.0627 17.1036 50.0823 16.9983 50.0808 16.8923V7.86755H62.356V37.3923H50.0808V28.3675C50.0841 28.2604 50.0659 28.1537 50.0272 28.0537C49.9885 27.9538 49.9301 27.8626 49.8555 27.7857C49.7809 27.7087 49.6915 27.6475 49.5928 27.6058C49.4941 27.564 49.388 27.5425 49.2808 27.5425C49.1736 27.5425 49.0675 27.564 48.9688 27.6058C48.8701 27.6475 48.7808 27.7087 48.7061 27.7857C48.6315 27.8626 48.5731 27.9538 48.5344 28.0537C48.4957 28.1537 48.4775 28.2604 48.4808 28.3675V37.3923H28.8056V28.3675C28.8091 28.2583 28.7901 28.1494 28.7499 28.0478C28.7096 27.9461 28.649 27.8538 28.5717 27.7765C28.4944 27.6992 28.402 27.6385 28.3004 27.5983C28.1987 27.5581 28.0899 27.5391 27.9806 27.5425C27.8756 27.5458 27.7722 27.5697 27.6764 27.613C27.5805 27.6562 27.4942 27.7178 27.4222 27.7945C27.3502 27.8711 27.2941 27.9611 27.2569 28.0594C27.2197 28.1578 27.2023 28.2625 27.2057 28.3675V37.3923H16.4809V7.86755H16.4808ZM21.4058 46.3923C17.8087 46.3923 14.8808 49.32 14.8808 52.9174C14.8808 56.5148 17.8087 59.4674 21.4058 59.4674C25.0029 59.4674 27.9558 56.5148 27.9558 52.9174C27.9558 49.32 25.0029 46.3923 21.4058 46.3923ZM57.481 46.3923C53.8838 46.3923 50.931 49.32 50.931 52.9174C50.931 56.5148 53.8838 59.4674 57.481 59.4674C61.0781 59.4674 64.0059 56.5148 64.0059 52.9174C64.0059 49.32 61.0781 46.3923 57.481 46.3923ZM21.4058 47.9923C24.1381 47.9923 26.3558 50.1847 26.3558 52.9174C26.3558 55.6502 24.1381 57.8674 21.4058 57.8674C18.6735 57.8674 16.4808 55.6502 16.4808 52.9174C16.4808 50.1847 18.6735 47.9923 21.4058 47.9923ZM57.481 47.9923C60.2133 47.9923 62.4059 50.1847 62.4059 52.9174C62.4059 55.6502 60.2132 57.8674 57.481 57.8674C54.7486 57.8674 52.531 55.6502 52.531 52.9174C52.531 50.1847 54.7486 47.9923 57.481 47.9923ZM57.481 51.3423C56.5973 51.3423 55.881 52.0587 55.881 52.9423C55.881 53.826 56.5973 54.5423 57.481 54.5423C58.3646 54.5423 59.081 53.826 59.081 52.9423C59.081 52.0587 58.3646 51.3423 57.481 51.3423ZM21.4058 51.4674C20.5221 51.4674 19.8058 52.1837 19.8058 53.0674C19.8058 53.9511 20.5221 54.6674 21.4058 54.6674C22.2894 54.6674 23.0058 53.9511 23.0058 53.0674C23.0058 52.1837 22.2894 51.4674 21.4058 51.4674Z"/>
</mask>
<path d="M1.70561 0.542548C1.55311 0.557382 1.40808 0.61571 1.28776 0.710565C1.16743 0.805421 1.07687 0.932834 1.02684 1.07766C0.976816 1.22248 0.969425 1.37861 1.00555 1.52751C1.04167 1.67641 1.11979 1.8118 1.23061 1.9176L5.90565 6.5676V43.9172C5.90567 44.1294 5.98997 44.3329 6.13999 44.4829C6.29002 44.6329 6.49349 44.7172 6.70565 44.7172H72.2056C72.3117 44.7187 72.4169 44.6991 72.5153 44.6596C72.6137 44.6201 72.7032 44.5614 72.7787 44.4869C72.8542 44.4125 72.9141 44.3238 72.955 44.226C72.996 44.1282 73.017 44.0232 73.017 43.9172C73.017 43.8112 72.996 43.7062 72.955 43.6084C72.9141 43.5106 72.8542 43.4219 72.7787 43.3475C72.7032 43.273 72.6137 43.2144 72.5153 43.1748C72.4169 43.1353 72.3117 43.1157 72.2056 43.1172H7.50565V6.2676C7.50811 6.16163 7.48948 6.05625 7.45086 5.95754C7.41223 5.85883 7.35438 5.76876 7.28065 5.6926L2.38065 0.792597C2.29549 0.701093 2.19008 0.630836 2.07286 0.587421C1.95564 0.544006 1.82987 0.528641 1.70565 0.542597L1.70561 0.542548ZM15.6808 6.26755C15.4686 6.26757 15.2652 6.35185 15.1152 6.50187C14.9651 6.6519 14.8808 6.85538 14.8808 7.06755V38.1923C14.8808 38.4045 14.9651 38.608 15.1152 38.758C15.2652 38.908 15.4686 38.9923 15.6808 38.9923H27.856C27.9632 39.0145 28.0738 39.0145 28.181 38.9923H49.1314C49.2386 39.0145 49.3492 39.0145 49.4564 38.9923H63.1564C63.3686 38.9923 63.572 38.908 63.7221 38.758C63.8721 38.608 63.9564 38.4045 63.9564 38.1923V7.06755C63.9564 6.85538 63.8721 6.6519 63.7221 6.50187C63.572 6.35185 63.3686 6.26757 63.1564 6.26755H15.6812H15.6808ZM16.4808 7.86755H27.2056V16.8923C27.2041 16.9983 27.2237 17.1036 27.2632 17.202C27.3028 17.3003 27.3614 17.3899 27.4359 17.4654C27.5103 17.5408 27.599 17.6008 27.6968 17.6417C27.7946 17.6826 27.8996 17.7037 28.0056 17.7037C28.1116 17.7037 28.2166 17.6826 28.3144 17.6417C28.4122 17.6008 28.5009 17.5408 28.5753 17.4654C28.6498 17.3899 28.7085 17.3003 28.748 17.202C28.7875 17.1036 28.8071 16.9983 28.8056 16.8923V7.86755H48.4808V16.8923C48.4793 16.9983 48.4989 17.1036 48.5384 17.202C48.578 17.3003 48.6366 17.3899 48.7111 17.4654C48.7855 17.5408 48.8742 17.6008 48.972 17.6417C49.0698 17.6826 49.1748 17.7037 49.2808 17.7037C49.3868 17.7037 49.4918 17.6826 49.5896 17.6417C49.6874 17.6008 49.7761 17.5408 49.8505 17.4654C49.925 17.3899 49.9837 17.3003 50.0232 17.202C50.0627 17.1036 50.0823 16.9983 50.0808 16.8923V7.86755H62.356V37.3923H50.0808V28.3675C50.0841 28.2604 50.0659 28.1537 50.0272 28.0537C49.9885 27.9538 49.9301 27.8626 49.8555 27.7857C49.7809 27.7087 49.6915 27.6475 49.5928 27.6058C49.4941 27.564 49.388 27.5425 49.2808 27.5425C49.1736 27.5425 49.0675 27.564 48.9688 27.6058C48.8701 27.6475 48.7808 27.7087 48.7061 27.7857C48.6315 27.8626 48.5731 27.9538 48.5344 28.0537C48.4957 28.1537 48.4775 28.2604 48.4808 28.3675V37.3923H28.8056V28.3675C28.8091 28.2583 28.7901 28.1494 28.7499 28.0478C28.7096 27.9461 28.649 27.8538 28.5717 27.7765C28.4944 27.6992 28.402 27.6385 28.3004 27.5983C28.1987 27.5581 28.0899 27.5391 27.9806 27.5425C27.8756 27.5458 27.7722 27.5697 27.6764 27.613C27.5805 27.6562 27.4942 27.7178 27.4222 27.7945C27.3502 27.8711 27.2941 27.9611 27.2569 28.0594C27.2197 28.1578 27.2023 28.2625 27.2057 28.3675V37.3923H16.4809V7.86755H16.4808ZM21.4058 46.3923C17.8087 46.3923 14.8808 49.32 14.8808 52.9174C14.8808 56.5148 17.8087 59.4674 21.4058 59.4674C25.0029 59.4674 27.9558 56.5148 27.9558 52.9174C27.9558 49.32 25.0029 46.3923 21.4058 46.3923ZM57.481 46.3923C53.8838 46.3923 50.931 49.32 50.931 52.9174C50.931 56.5148 53.8838 59.4674 57.481 59.4674C61.0781 59.4674 64.0059 56.5148 64.0059 52.9174C64.0059 49.32 61.0781 46.3923 57.481 46.3923ZM21.4058 47.9923C24.1381 47.9923 26.3558 50.1847 26.3558 52.9174C26.3558 55.6502 24.1381 57.8674 21.4058 57.8674C18.6735 57.8674 16.4808 55.6502 16.4808 52.9174C16.4808 50.1847 18.6735 47.9923 21.4058 47.9923ZM57.481 47.9923C60.2133 47.9923 62.4059 50.1847 62.4059 52.9174C62.4059 55.6502 60.2132 57.8674 57.481 57.8674C54.7486 57.8674 52.531 55.6502 52.531 52.9174C52.531 50.1847 54.7486 47.9923 57.481 47.9923ZM57.481 51.3423C56.5973 51.3423 55.881 52.0587 55.881 52.9423C55.881 53.826 56.5973 54.5423 57.481 54.5423C58.3646 54.5423 59.081 53.826 59.081 52.9423C59.081 52.0587 58.3646 51.3423 57.481 51.3423ZM21.4058 51.4674C20.5221 51.4674 19.8058 52.1837 19.8058 53.0674C19.8058 53.9511 20.5221 54.6674 21.4058 54.6674C22.2894 54.6674 23.0058 53.9511 23.0058 53.0674C23.0058 52.1837 22.2894 51.4674 21.4058 51.4674Z" fill="#3460C6"/>
<path d="M1.70561 0.542548C1.55311 0.557382 1.40808 0.61571 1.28776 0.710565C1.16743 0.805421 1.07687 0.932834 1.02684 1.07766C0.976816 1.22248 0.969425 1.37861 1.00555 1.52751C1.04167 1.67641 1.11979 1.8118 1.23061 1.9176L5.90565 6.5676V43.9172C5.90567 44.1294 5.98997 44.3329 6.13999 44.4829C6.29002 44.6329 6.49349 44.7172 6.70565 44.7172H72.2056C72.3117 44.7187 72.4169 44.6991 72.5153 44.6596C72.6137 44.6201 72.7032 44.5614 72.7787 44.4869C72.8542 44.4125 72.9141 44.3238 72.955 44.226C72.996 44.1282 73.017 44.0232 73.017 43.9172C73.017 43.8112 72.996 43.7062 72.955 43.6084C72.9141 43.5106 72.8542 43.4219 72.7787 43.3475C72.7032 43.273 72.6137 43.2144 72.5153 43.1748C72.4169 43.1353 72.3117 43.1157 72.2056 43.1172H7.50565V6.2676C7.50811 6.16163 7.48948 6.05625 7.45086 5.95754C7.41223 5.85883 7.35438 5.76876 7.28065 5.6926L2.38065 0.792597C2.29549 0.701093 2.19008 0.630836 2.07286 0.587421C1.95564 0.544006 1.82987 0.528641 1.70565 0.542597L1.70561 0.542548ZM15.6808 6.26755C15.4686 6.26757 15.2652 6.35185 15.1152 6.50187C14.9651 6.6519 14.8808 6.85538 14.8808 7.06755V38.1923C14.8808 38.4045 14.9651 38.608 15.1152 38.758C15.2652 38.908 15.4686 38.9923 15.6808 38.9923H27.856C27.9632 39.0145 28.0738 39.0145 28.181 38.9923H49.1314C49.2386 39.0145 49.3492 39.0145 49.4564 38.9923H63.1564C63.3686 38.9923 63.572 38.908 63.7221 38.758C63.8721 38.608 63.9564 38.4045 63.9564 38.1923V7.06755C63.9564 6.85538 63.8721 6.6519 63.7221 6.50187C63.572 6.35185 63.3686 6.26757 63.1564 6.26755H15.6812H15.6808ZM16.4808 7.86755H27.2056V16.8923C27.2041 16.9983 27.2237 17.1036 27.2632 17.202C27.3028 17.3003 27.3614 17.3899 27.4359 17.4654C27.5103 17.5408 27.599 17.6008 27.6968 17.6417C27.7946 17.6826 27.8996 17.7037 28.0056 17.7037C28.1116 17.7037 28.2166 17.6826 28.3144 17.6417C28.4122 17.6008 28.5009 17.5408 28.5753 17.4654C28.6498 17.3899 28.7085 17.3003 28.748 17.202C28.7875 17.1036 28.8071 16.9983 28.8056 16.8923V7.86755H48.4808V16.8923C48.4793 16.9983 48.4989 17.1036 48.5384 17.202C48.578 17.3003 48.6366 17.3899 48.7111 17.4654C48.7855 17.5408 48.8742 17.6008 48.972 17.6417C49.0698 17.6826 49.1748 17.7037 49.2808 17.7037C49.3868 17.7037 49.4918 17.6826 49.5896 17.6417C49.6874 17.6008 49.7761 17.5408 49.8505 17.4654C49.925 17.3899 49.9837 17.3003 50.0232 17.202C50.0627 17.1036 50.0823 16.9983 50.0808 16.8923V7.86755H62.356V37.3923H50.0808V28.3675C50.0841 28.2604 50.0659 28.1537 50.0272 28.0537C49.9885 27.9538 49.9301 27.8626 49.8555 27.7857C49.7809 27.7087 49.6915 27.6475 49.5928 27.6058C49.4941 27.564 49.388 27.5425 49.2808 27.5425C49.1736 27.5425 49.0675 27.564 48.9688 27.6058C48.8701 27.6475 48.7808 27.7087 48.7061 27.7857C48.6315 27.8626 48.5731 27.9538 48.5344 28.0537C48.4957 28.1537 48.4775 28.2604 48.4808 28.3675V37.3923H28.8056V28.3675C28.8091 28.2583 28.7901 28.1494 28.7499 28.0478C28.7096 27.9461 28.649 27.8538 28.5717 27.7765C28.4944 27.6992 28.402 27.6385 28.3004 27.5983C28.1987 27.5581 28.0899 27.5391 27.9806 27.5425C27.8756 27.5458 27.7722 27.5697 27.6764 27.613C27.5805 27.6562 27.4942 27.7178 27.4222 27.7945C27.3502 27.8711 27.2941 27.9611 27.2569 28.0594C27.2197 28.1578 27.2023 28.2625 27.2057 28.3675V37.3923H16.4809V7.86755H16.4808ZM21.4058 46.3923C17.8087 46.3923 14.8808 49.32 14.8808 52.9174C14.8808 56.5148 17.8087 59.4674 21.4058 59.4674C25.0029 59.4674 27.9558 56.5148 27.9558 52.9174C27.9558 49.32 25.0029 46.3923 21.4058 46.3923ZM57.481 46.3923C53.8838 46.3923 50.931 49.32 50.931 52.9174C50.931 56.5148 53.8838 59.4674 57.481 59.4674C61.0781 59.4674 64.0059 56.5148 64.0059 52.9174C64.0059 49.32 61.0781 46.3923 57.481 46.3923ZM21.4058 47.9923C24.1381 47.9923 26.3558 50.1847 26.3558 52.9174C26.3558 55.6502 24.1381 57.8674 21.4058 57.8674C18.6735 57.8674 16.4808 55.6502 16.4808 52.9174C16.4808 50.1847 18.6735 47.9923 21.4058 47.9923ZM57.481 47.9923C60.2133 47.9923 62.4059 50.1847 62.4059 52.9174C62.4059 55.6502 60.2132 57.8674 57.481 57.8674C54.7486 57.8674 52.531 55.6502 52.531 52.9174C52.531 50.1847 54.7486 47.9923 57.481 47.9923ZM57.481 51.3423C56.5973 51.3423 55.881 52.0587 55.881 52.9423C55.881 53.826 56.5973 54.5423 57.481 54.5423C58.3646 54.5423 59.081 53.826 59.081 52.9423C59.081 52.0587 58.3646 51.3423 57.481 51.3423ZM21.4058 51.4674C20.5221 51.4674 19.8058 52.1837 19.8058 53.0674C19.8058 53.9511 20.5221 54.6674 21.4058 54.6674C22.2894 54.6674 23.0058 53.9511 23.0058 53.0674C23.0058 52.1837 22.2894 51.4674 21.4058 51.4674Z" stroke="#D0EFFF" mask="url(#path-1-outside-1)"/>
</svg>
