<svg width="14" height="14" viewBox="0 0 14 14" fill="none" xmlns="http://www.w3.org/2000/svg">
<path d="M0 14L1.204 10.3882C0.593069 9.36069 0.241379 8.16152 0.241379 6.87931C0.241379 3.08 3.32138 0 7.12069 0C10.92 0 14 3.08 14 6.87931C14 10.6786 10.92 13.7586 7.12069 13.7586C5.96472 13.7586 4.8761 13.4721 3.92 12.9686L0 14Z" fill="#2CB742"/>
<path d="M11.5097 9.16851C11.192 8.5682 10.0206 7.88171 10.0206 7.88171C9.75558 7.73061 9.43575 7.71371 9.28464 7.98309C9.28464 7.98309 8.90399 8.43954 8.8072 8.5052C8.36499 8.80475 7.95537 8.79316 7.54189 8.37968L6.58095 7.41875L5.62002 6.45782C5.20654 6.04433 5.19495 5.63471 5.49451 5.19251C5.56016 5.09571 6.01661 4.71506 6.01661 4.71506C6.28599 4.56371 6.26909 4.24413 6.11799 3.97909C6.11799 3.97909 5.43151 2.80768 4.8312 2.49002C4.57582 2.35485 4.26226 2.40216 4.05806 2.60637L3.63371 3.03071C2.28754 4.37689 2.95037 5.89661 4.29654 7.24278L5.52685 8.47309L6.75716 9.7034C8.10333 11.0496 9.62306 11.7124 10.9692 10.3662L11.3936 9.94189C11.5978 9.7372 11.6449 9.42364 11.5097 9.16851Z" fill="white"/>
</svg>
