<?xml version="1.0" standalone="no"?>
<!DOCTYPE svg PUBLIC "-//W3C//DTD SVG 20010904//EN"
 "http://www.w3.org/TR/2001/REC-SVG-20010904/DTD/svg10.dtd">
<svg version="1.0" xmlns="http://www.w3.org/2000/svg"
 width="700.000000pt" height="700.000000pt" viewBox="0 0 700.000000 700.000000"
 preserveAspectRatio="xMidYMid meet">
<metadata>
Created by potrace 1.11, written by Peter Selinger 2001-2013
</metadata>
<g transform="translate(0.000000,700.000000) scale(0.100000,-0.100000)"
fill="#000000" stroke="none">
<path d="M1688 4755 c-2 -2 -32 -6 -68 -10 -154 -17 -387 -96 -538 -182 -298
-173 -553 -427 -681 -680 -34 -69 -88 -223 -97 -277 -3 -21 -8 -48 -11 -60
-11 -48 -10 -247 2 -326 18 -122 40 -191 100 -315 112 -230 282 -402 512 -519
216 -110 388 -147 653 -141 339 8 699 133 1055 366 160 105 312 228 551 444
31 28 225 207 273 252 35 32 58 47 63 40 8 -14 3 -360 -6 -407 -4 -19 -18 -75
-31 -124 -32 -116 -26 -128 87 -186 46 -24 106 -55 133 -70 28 -15 96 -51 152
-80 59 -30 105 -61 108 -71 18 -57 145 -99 345 -115 145 -12 483 -7 700 11 25
2 86 6 137 10 51 3 100 8 110 9 10 2 54 7 98 10 44 4 87 9 95 11 8 2 42 6 75
10 105 11 139 15 165 20 14 3 40 7 57 10 287 47 574 186 752 364 153 152 234
302 291 536 16 63 21 280 9 365 -11 80 -24 133 -57 230 -149 443 -538 768
-1016 850 -166 29 -401 23 -601 -13 -16 -3 -48 -8 -70 -12 -22 -3 -77 -16
-121 -29 -45 -13 -95 -22 -110 -20 -17 2 -24 0 -16 -5 8 -5 1 -11 -23 -18 -19
-6 -33 -7 -29 -2 3 5 12 9 21 9 9 0 14 2 11 5 -3 3 -93 -17 -199 -45 -107 -29
-201 -53 -209 -56 -278 -69 -372 -102 -580 -201 -110 -53 -265 -151 -370 -235
-19 -15 -92 -72 -161 -127 -122 -96 -203 -170 -485 -440 -113 -109 -342 -316
-400 -361 -180 -141 -323 -226 -464 -276 -162 -57 -186 -65 -246 -74 -146 -24
-240 -22 -358 6 -179 42 -264 89 -383 211 -153 156 -211 340 -179 567 28 198
185 427 416 605 152 118 404 213 625 237 201 21 449 0 670 -56 44 -12 88 -23
99 -25 10 -2 127 -34 260 -69 290 -79 364 -94 540 -112 59 -6 72 7 21 20 -14
4 -49 21 -78 40 -137 87 -410 229 -575 300 -153 66 -378 140 -482 159 -14 3
-36 8 -50 11 -30 6 -91 16 -140 22 -44 6 -347 13 -352 9z m3027 -135 c-3 -5
-12 -10 -18 -10 -7 0 -6 4 3 10 19 12 23 12 15 0z m-80 -30 c-27 -9 -77 -29
-109 -44 -33 -14 -61 -25 -62 -23 -9 8 178 86 206 86 8 0 -7 -9 -35 -19z
m-230 -100 c-3 -5 -12 -10 -18 -10 -7 0 -6 4 3 10 19 12 23 12 15 0z m-35 -14
c0 -2 -24 -16 -52 -31 -29 -15 -48 -23 -43 -17 9 9 85 52 92 52 2 0 3 -2 3 -4z
m-130 -70 c0 -2 -16 -13 -35 -25 -19 -11 -35 -18 -35 -16 0 5 61 45 68 45 1 0
2 -2 2 -4z m680 -133 c110 -31 253 -112 333 -189 115 -112 191 -246 222 -393
18 -88 5 -276 -25 -346 -45 -106 -65 -141 -101 -180 -23 -24 -48 -53 -55 -63
-24 -35 -159 -120 -255 -161 -79 -34 -236 -79 -338 -98 -14 -2 -27 -6 -31 -8
-6 -4 -74 -13 -225 -30 -27 -4 -68 -9 -90 -11 -22 -3 -72 -7 -111 -8 l-71 -3
-6 141 c-3 78 -8 155 -12 171 -3 17 -10 55 -16 85 -28 141 -114 351 -196 479
l-35 55 33 28 c138 114 294 232 404 306 162 109 182 121 329 198 131 68 111
65 246 27z m-890 3 c0 -2 -8 -10 -17 -17 -16 -13 -17 -12 -4 4 13 16 21 21 21
13z m-100 -69 c0 -2 -10 -12 -22 -23 l-23 -19 19 23 c18 21 26 27 26 19z m-50
-40 c0 -2 -10 -12 -22 -23 l-23 -19 19 23 c18 21 26 27 26 19z m-2990 -10 c0
-2 -12 -14 -27 -28 l-28 -24 24 28 c23 25 31 32 31 24z m-100 -116 c-24 -28
-45 -51 -47 -51 -3 0 10 18 29 41 18 22 37 47 43 54 5 8 11 12 13 10 2 -2 -15
-27 -38 -54z m-91 -126 c-12 -19 -23 -35 -25 -35 -6 0 14 40 29 58 18 23 16
12 -4 -23z m-59 -107 c-16 -35 -40 -106 -54 -158 -22 -84 -24 -112 -22 -245 2
-128 5 -159 25 -215 71 -196 167 -328 316 -434 102 -72 209 -125 298 -145 132
-31 173 -36 332 -35 121 0 165 4 230 22 326 87 525 190 835 430 52 41 81 61
65 45 -43 -39 -161 -134 -205 -163 -13 -8 -35 -24 -49 -36 -28 -23 -185 -115
-266 -157 -106 -55 -264 -114 -354 -133 -305 -63 -536 -46 -750 56 -381 183
-567 555 -481 964 13 65 49 165 80 227 32 62 32 45 0 -23z m5774 -704 c-114
-207 -314 -362 -579 -447 -96 -31 -145 -43 -243 -62 -13 -2 -31 -6 -40 -9 -9
-3 -35 -7 -57 -11 -22 -3 -65 -10 -95 -15 -140 -25 -317 -44 -510 -57 -123 -8
-759 -8 -767 0 -3 3 -2 11 2 17 5 8 64 9 203 5 280 -9 571 -2 767 20 28 4 71
8 97 10 25 2 70 8 100 14 29 6 78 13 108 15 56 5 196 32 210 41 4 3 25 7 46
10 68 10 246 66 321 101 174 80 343 224 418 356 22 37 41 66 42 64 2 -2 -8
-26 -23 -52z"/>
</g>
</svg>
